<!-- generated by vm-brand scripts/make-readme-kit.py. Do not edit by hand. -->
<svg xmlns="http://www.w3.org/2000/svg" viewBox="0 0 1280 267" width="1280" height="267" role="img" aria-label="PAGE -&gt; LOADER -&gt; IFRAME -&gt; SERVICES. The iframe isolates the widget from the host page. On purpose."><title>PAGE -&gt; LOADER -&gt; IFRAME -&gt; SERVICES. The iframe isolates the widget from the host page. On purpose.</title>
<defs>
<radialGradient id="vmp-flow-d-g"><stop offset="0" stop-color="#6366f1" stop-opacity="0.2"/><stop offset="1" stop-color="#6366f1" stop-opacity="0"/></radialGradient>
<pattern id="vmp-flow-d-grid" width="32" height="32" patternUnits="userSpaceOnUse"><path d="M32 0H0V32" fill="none" stroke="#ffffff" stroke-opacity="0.045" stroke-width="1"/></pattern>
<radialGradient id="vmp-flow-d-fade" cx="0.5" cy="0.2" r="0.8"><stop offset="0" stop-color="#fff"/><stop offset="1" stop-color="#fff" stop-opacity="0"/></radialGradient>
<mask id="vmp-flow-d-m"><rect width="1280" height="267" fill="url(#vmp-flow-d-fade)"/></mask>
<clipPath id="vmp-flow-d-clip"><rect width="1280" height="267" rx="28"/></clipPath>
</defs>
<g clip-path="url(#vmp-flow-d-clip)">
<rect width="1280" height="267" fill="#0a0a0b"/>
<rect width="1280" height="267" fill="url(#vmp-flow-d-grid)" mask="url(#vmp-flow-d-m)"/>
<ellipse cx="1024" cy="0" rx="461" ry="220" fill="url(#vmp-flow-d-g)"/>
</g>
<rect x="0.5" y="0.5" width="1279" height="266" rx="27.5" fill="none" stroke="#1f1f23"/>
<path fill="#818cf8" d="M42.2 51.2 41.4 50.9 44.6 41.1 45.4 41.4ZM51.1 51.2 50.3 50.9 53.5 41.1 54.3 41.4ZM70.2 50.2Q68.9 50.2 68.2 49.3Q67.5 48.5 67.5 47V45.3Q67.5 43.8 68.2 43Q68.9 42.1 70.2 42.1Q71.4 42.1 72.2 43Q72.9 43.8 72.9 45.3V47Q72.9 48.5 72.2 49.3Q71.4 50.2 70.2 50.2ZM70.2 49.3Q71.1 49.3 71.5 48.7Q71.9 48.1 71.9 46.9V45.4Q71.9 44.3 71.5 43.7Q71.1 43 70.2 43Q69.3 43 68.8 43.7Q68.4 44.3 68.4 45.4V46.9Q68.4 48.1 68.8 48.7Q69.3 49.3 70.2 49.3ZM76.5 50V42.3H78.4L80.6 49.6H80.7V42.3H81.7V50H79.8L77.6 42.7H77.5V50ZM85.7 50V42.3H90.4V43.2H86.6V45.7H90.3V46.6H86.6V49.1H90.4V50ZM103.5 50V42.3H106.2Q107 42.3 107.5 42.6Q108 42.9 108.3 43.4Q108.6 43.8 108.6 44.4V44.7Q108.6 45.3 108.3 45.8Q108 46.2 107.5 46.5Q107 46.8 106.2 46.8H104.4V50ZM104.4 46H106.1Q107.6 46 107.6 44.7V44.5Q107.6 43.9 107.3 43.5Q106.9 43.2 106.1 43.2H104.4ZM111.6 50 114 42.3H115.7L118 50H117L116.5 48.1H113.2L112.6 50ZM113.4 47.2H116.2L114.9 42.7H114.8ZM123.7 50.2Q122.5 50.2 121.8 49.3Q121 48.5 121 47V45.3Q121 43.8 121.8 43Q122.5 42.1 123.7 42.1Q124.6 42.1 125.2 42.5Q125.8 42.9 126.1 43.5Q126.4 44.2 126.4 44.9V45.1H125.5V44.9Q125.5 44.4 125.3 44Q125.2 43.6 124.8 43.3Q124.4 43 123.7 43Q122.9 43 122.4 43.7Q122 44.3 122 45.4V46.9Q122 48.1 122.4 48.7Q122.9 49.3 123.8 49.3Q124.6 49.3 125.1 48.8Q125.5 48.2 125.5 47.3V47.2H123V46.3H126.4V50H125.6V49.1H125.5Q125.3 49.5 124.8 49.9Q124.3 50.2 123.7 50.2ZM130.4 50V42.3H135V43.2H131.3V45.7H135V46.6H131.3V49.1H135.1V50ZM141 51.3V50.7H141.5Q141.8 50.7 141.8 50.4V50.1Q141.7 50.2 141.6 50.2Q141.3 50.2 141.1 49.9Q140.8 49.7 140.8 49.4Q140.8 49.1 141.1 48.8Q141.3 48.6 141.6 48.6Q141.9 48.6 142.2 48.8Q142.4 49.1 142.4 49.4V50.5Q142.4 50.8 142.2 51.1Q141.9 51.3 141.5 51.3ZM157.1 50V42.3H158V49.1H162V50ZM166.1 50V42.3H170.7V43.2H167V45.7H170.7V46.6H167V49.1H170.8V50ZM175 50V42.3H179.8V43.2H175.9V45.7H179.7V46.6H175.9V50ZM185.8 50V43.2H183.6V42.3H189V43.2H186.7V50ZM203.7 50V43.2H201.4V42.3H206.8V43.2H204.6V50ZM213.1 50.2Q211.8 50.2 211.1 49.3Q210.4 48.5 210.4 47V45.3Q210.4 43.8 211.1 43Q211.8 42.1 213.1 42.1Q214.3 42.1 215.1 43Q215.8 43.8 215.8 45.3V47Q215.8 48.5 215.1 49.3Q214.3 50.2 213.1 50.2ZM213.1 49.3Q214 49.3 214.4 48.7Q214.9 48.1 214.9 46.9V45.4Q214.9 44.3 214.4 43.7Q214 43 213.1 43Q212.2 43 211.7 43.7Q211.3 44.3 211.3 45.4V46.9Q211.3 48.1 211.7 48.7Q212.2 49.3 213.1 49.3ZM228.5 50V42.3H231.3Q232 42.3 232.6 42.6Q233.1 42.9 233.4 43.4Q233.6 43.8 233.6 44.4V44.7Q233.6 45.1 233.4 45.6Q233.1 46 232.6 46.2V46.4Q233 46.4 233.2 46.6Q233.3 46.8 233.3 47.2V50H232.4V47.4Q232.4 47.1 232.3 47Q232.2 46.8 231.8 46.8H229.4V50ZM229.4 46H231.1Q232.7 46 232.7 44.7V44.5Q232.7 43.9 232.3 43.5Q231.9 43.2 231.1 43.2H229.4ZM237.4 50V49.1H239.4V43.2H237.4V42.3H242.3V43.2H240.3V49.1H242.3V50ZM248.7 50.2Q247.5 50.2 246.8 49.3Q246.1 48.5 246.1 47V45.3Q246.1 43.8 246.8 43Q247.5 42.1 248.8 42.1Q249.7 42.1 250.3 42.5Q250.9 42.9 251.2 43.5Q251.5 44.2 251.5 44.9V45.1H250.6V44.9Q250.6 44.4 250.4 44Q250.2 43.6 249.8 43.3Q249.4 43 248.8 43Q247.9 43 247.5 43.7Q247 44.3 247 45.4V46.9Q247 48.1 247.5 48.7Q247.9 49.3 248.8 49.3Q249.6 49.3 250.1 48.8Q250.6 48.2 250.6 47.3V47.2H248.1V46.3H251.5V50H250.6V49.1H250.5Q250.3 49.5 249.9 49.9Q249.4 50.2 248.7 50.2ZM255.2 50V42.3H256.1V45.7H259.4V42.3H260.3V50H259.4V46.6H256.1V50ZM266.2 50V43.2H264V42.3H269.4V43.2H267.1V50Z"/>
<rect x="40.0" y="74" width="264.0" height="117" rx="16" fill="#111113" fill-opacity="0.92" stroke="#26262b" stroke-width="1.2"/>
<rect x="60.0" y="94" width="22" height="2" fill="#6366f1"/>
<path fill="#f4f4f5" d="M61.2 130V118.1H65.9Q67.1 118.1 67.9 118.6Q68.7 119.1 69.1 119.9Q69.5 120.7 69.5 121.6V122Q69.5 122.8 69.1 123.7Q68.7 124.5 67.9 125Q67.1 125.5 65.9 125.5H63.5V130ZM63.5 123.4H65.7Q66.4 123.4 66.8 123Q67.3 122.6 67.3 121.9V121.7Q67.3 121.1 66.8 120.7Q66.4 120.2 65.7 120.2H63.5ZM71 130 73.8 118.1H78L80.9 130H78.5L77.9 127.5H73.9L73.3 130ZM74.4 125.3H77.4L76.1 119.2H75.8ZM86.1 130.2Q85 130.2 84.1 129.7Q83.2 129.2 82.7 128.1Q82.2 127 82.2 125.4V122.7Q82.2 121.1 82.7 120Q83.3 119 84.3 118.4Q85.3 117.9 86.6 117.9Q88 117.9 88.9 118.4Q89.9 119 90.4 120Q90.9 121 90.9 122.2V122.4H88.7V122.2Q88.7 121.1 88.1 120.6Q87.6 120 86.6 120Q85.6 120 85 120.6Q84.4 121.3 84.4 122.8V125.3Q84.4 128.1 86.6 128.1Q87.6 128.1 88.2 127.6Q88.7 127 88.7 126.1H85.8V124H90.9V130H88.9V128.7H88.6Q88.4 129.3 87.8 129.8Q87.2 130.2 86.1 130.2ZM93.5 130V118.1H101V120.2H95.8V123H100.8V125.1H95.8V127.9H101.2V130Z"/>
<path fill="#a1a1aa" d="M63.4 157.2Q62.7 157.2 62 156.9Q61.4 156.6 61 156Q60.7 155.5 60.7 154.7Q60.7 154 60.9 153.5Q61.2 153.1 61.7 152.8Q62.1 152.6 62.7 152.5Q63.3 152.3 63.8 152.3Q64.6 152.2 65 152.1Q65.5 152.1 65.7 151.9Q65.9 151.8 65.9 151.5V151.5Q65.9 151 65.8 150.6Q65.6 150.2 65.2 150.1Q64.8 149.9 64.2 149.9Q63.6 149.9 63.2 150Q62.8 150.2 62.6 150.5Q62.3 150.8 62.2 151.1L60.9 150.6Q61.2 149.9 61.7 149.5Q62.3 149.1 62.9 148.9Q63.6 148.7 64.2 148.7Q64.6 148.7 65.1 148.8Q65.7 148.9 66.1 149.2Q66.6 149.5 66.9 150.1Q67.3 150.6 67.3 151.6V157H66V155.9H65.9Q65.7 156.2 65.4 156.5Q65.1 156.8 64.6 157Q64.1 157.2 63.4 157.2ZM63.7 156Q64.4 156 64.9 155.7Q65.4 155.5 65.7 155Q65.9 154.5 65.9 154V152.9Q65.9 153 65.6 153.1Q65.3 153.2 65 153.2Q64.6 153.3 64.3 153.3Q64 153.4 63.8 153.4Q63.3 153.4 62.9 153.6Q62.5 153.7 62.2 154Q62 154.3 62 154.7Q62 155.2 62.2 155.4Q62.4 155.7 62.8 155.9Q63.2 156 63.7 156ZM70.9 152.1V157H69.6V148.8H70.8L70.9 150.8H70.7Q71 149.7 71.7 149.2Q72.4 148.7 73.4 148.7Q74.2 148.7 74.8 149Q75.4 149.4 75.8 150.1Q76.1 150.8 76.1 151.8V157H74.8V151.9Q74.8 151 74.3 150.4Q73.8 149.9 73 149.9Q72.4 149.9 71.9 150.2Q71.4 150.4 71.2 150.9Q70.9 151.4 70.9 152.1ZM78.3 160 78.6 158.8 78.8 158.9Q79.2 159 79.5 158.9Q79.8 158.9 80.1 158.6Q80.4 158.3 80.6 157.7L80.8 157L77.7 148.8H79.1L80.9 153.7Q81.1 154.4 81.3 155.2Q81.5 155.9 81.7 156.6H81.3Q81.5 155.9 81.7 155.2Q81.9 154.4 82.1 153.7L83.9 148.8H85.3L81.7 158.2Q81.5 158.9 81.1 159.3Q80.8 159.7 80.3 159.9Q79.9 160.1 79.3 160.1Q78.9 160.1 78.7 160.1Q78.4 160 78.3 160ZM92.9 157 90.4 148.8H91.8L92.8 152.4Q93 153.1 93.3 154Q93.5 155 93.7 156.1H93.5Q93.7 155 94 154.1Q94.2 153.2 94.4 152.4L95.4 148.8H96.8L97.8 152.4Q98 153.1 98.2 154.1Q98.4 155 98.6 156.1H98.4Q98.6 155 98.9 154.1Q99.1 153.2 99.3 152.4L100.3 148.8H101.7L99.2 157H97.9L96.8 153.3Q96.7 152.7 96.5 152.1Q96.4 151.6 96.2 150.9Q96.1 150.3 95.9 149.7H96.2Q96.1 150.3 95.9 150.9Q95.8 151.6 95.6 152.2Q95.5 152.7 95.3 153.3L94.2 157ZM106.8 157.2Q105.6 157.2 104.8 156.6Q103.9 156.1 103.4 155.2Q103 154.2 103 153Q103 151.7 103.4 150.8Q103.9 149.8 104.7 149.3Q105.5 148.7 106.7 148.7Q107.3 148.7 107.9 148.9Q108.6 149.1 109.1 149.6Q109.6 150.1 109.9 150.9Q110.2 151.7 110.2 152.8V153.4H103.9V152.2H109.5L108.9 152.6Q108.9 151.8 108.6 151.2Q108.4 150.6 107.9 150.2Q107.4 149.9 106.7 149.9Q105.9 149.9 105.4 150.2Q104.9 150.6 104.6 151.2Q104.3 151.8 104.3 152.4V153.2Q104.3 154.1 104.6 154.7Q104.9 155.4 105.5 155.7Q106.1 156 106.8 156Q107.3 156 107.7 155.9Q108.1 155.7 108.4 155.4Q108.7 155.2 108.8 154.7L110.1 155.1Q109.9 155.7 109.4 156.2Q109 156.6 108.3 156.9Q107.7 157.2 106.8 157.2ZM115.9 157.2Q115.1 157.2 114.7 156.9Q114.2 156.6 113.9 156.3Q113.7 156 113.5 155.7H113.4V157H112.1V146.1H113.4V150.1H113.5Q113.7 149.9 113.9 149.6Q114.2 149.2 114.6 149Q115.1 148.7 115.9 148.7Q116.9 148.7 117.7 149.2Q118.5 149.7 118.9 150.7Q119.4 151.6 119.4 152.9Q119.4 154.2 118.9 155.2Q118.5 156.1 117.7 156.7Q116.9 157.2 115.9 157.2ZM115.7 156Q116.5 156 117 155.6Q117.5 155.2 117.8 154.5Q118 153.8 118 152.9Q118 152.1 117.8 151.4Q117.5 150.7 117 150.3Q116.5 149.9 115.7 149.9Q115 149.9 114.4 150.3Q113.9 150.6 113.7 151.3Q113.4 152 113.4 152.9Q113.4 153.8 113.7 154.5Q113.9 155.2 114.5 155.6Q115 156 115.7 156ZM124.1 157.2Q123.2 157.2 122.6 156.9Q121.9 156.7 121.5 156.2Q121.1 155.7 120.9 155L122.2 154.7Q122.4 155.4 122.8 155.7Q123.3 156 124.1 156Q124.9 156 125.4 155.7Q125.9 155.3 125.9 154.8Q125.9 154.4 125.6 154.1Q125.3 153.8 124.7 153.7L123.4 153.3Q122.3 153.1 121.7 152.5Q121.2 152 121.2 151.1Q121.2 150.4 121.6 149.9Q122 149.3 122.7 149Q123.3 148.7 124.2 148.7Q125.1 148.7 125.6 149Q126.2 149.2 126.6 149.7Q127 150.1 127.2 150.7L126 151Q125.8 150.5 125.4 150.2Q125 149.8 124.2 149.8Q123.5 149.8 123 150.2Q122.5 150.5 122.5 151Q122.5 151.5 122.8 151.7Q123.2 152 123.9 152.2L125.1 152.5Q126.2 152.7 126.8 153.3Q127.3 153.9 127.3 154.7Q127.3 155.4 126.9 156Q126.5 156.5 125.8 156.9Q125 157.2 124.1 157.2ZM129.2 157V148.8H130.5V157ZM129.9 147.5Q129.5 147.5 129.2 147.2Q129 147 129 146.6Q129 146.2 129.2 146Q129.5 145.7 129.9 145.7Q130.3 145.7 130.5 146Q130.8 146.2 130.8 146.6Q130.8 147 130.5 147.2Q130.3 147.5 129.9 147.5ZM136.1 148.8V149.9H131.8V148.8ZM133.1 146.9H134.4V154.9Q134.4 155.4 134.6 155.7Q134.8 155.9 135.4 155.9Q135.5 155.9 135.7 155.9Q135.9 155.9 136 155.8L136.3 157Q136.1 157 135.8 157.1Q135.6 157.1 135.3 157.1Q134.3 157.1 133.7 156.5Q133.1 156 133.1 155ZM141.2 157.2Q140 157.2 139.1 156.6Q138.3 156.1 137.8 155.2Q137.4 154.2 137.4 153Q137.4 151.7 137.8 150.8Q138.3 149.8 139.1 149.3Q139.9 148.7 141 148.7Q141.7 148.7 142.3 148.9Q143 149.1 143.5 149.6Q144 150.1 144.3 150.9Q144.6 151.7 144.6 152.8V153.4H138.3V152.2H143.9L143.3 152.6Q143.3 151.8 143 151.2Q142.8 150.6 142.3 150.2Q141.8 149.9 141 149.9Q140.3 149.9 139.8 150.2Q139.2 150.6 139 151.2Q138.7 151.8 138.7 152.4V153.2Q138.7 154.1 139 154.7Q139.3 155.4 139.9 155.7Q140.5 156 141.2 156Q141.7 156 142.1 155.9Q142.5 155.7 142.8 155.4Q143 155.2 143.2 154.7L144.5 155.1Q144.3 155.7 143.8 156.2Q143.4 156.6 142.7 156.9Q142 157.2 141.2 157.2ZM154.1 157.2Q152.9 157.2 152.1 156.6Q151.3 156.1 150.8 155.2Q150.3 154.2 150.3 153Q150.3 151.7 150.8 150.7Q151.3 149.8 152.1 149.2Q152.9 148.7 154.1 148.7Q155.2 148.7 156 149.2Q156.9 149.8 157.3 150.7Q157.8 151.7 157.8 153Q157.8 154.2 157.3 155.2Q156.9 156.1 156 156.6Q155.2 157.2 154.1 157.2ZM154.1 156Q154.9 156 155.4 155.6Q155.9 155.1 156.2 154.5Q156.5 153.8 156.5 153Q156.5 152.1 156.2 151.4Q155.9 150.7 155.4 150.3Q154.9 149.9 154.1 149.9Q153.2 149.9 152.7 150.3Q152.2 150.7 151.9 151.4Q151.7 152.1 151.7 153Q151.7 153.8 151.9 154.5Q152.2 155.1 152.7 155.6Q153.2 156 154.1 156ZM159.7 157V148.8H161V150.1H161.1Q161.3 149.4 161.9 149.1Q162.5 148.7 163.2 148.7Q163.3 148.7 163.5 148.7Q163.7 148.7 163.9 148.7V150Q163.8 150 163.6 150Q163.3 150 163.1 150Q162.5 150 162 150.2Q161.6 150.5 161.3 150.9Q161 151.3 161 151.9V157ZM171.9 157.2Q171.1 157.2 170.5 156.9Q169.8 156.6 169.5 156Q169.1 155.5 169.1 154.7Q169.1 154 169.4 153.5Q169.6 153.1 170.1 152.8Q170.6 152.6 171.1 152.5Q171.7 152.3 172.3 152.3Q173 152.2 173.5 152.1Q173.9 152.1 174.1 151.9Q174.4 151.8 174.4 151.5V151.5Q174.4 151 174.2 150.6Q174 150.2 173.6 150.1Q173.2 149.9 172.7 149.9Q172.1 149.9 171.7 150Q171.2 150.2 171 150.5Q170.7 150.8 170.6 151.1L169.3 150.6Q169.6 149.9 170.2 149.5Q170.7 149.1 171.3 148.9Q172 148.7 172.6 148.7Q173 148.7 173.6 148.8Q174.1 148.9 174.6 149.2Q175 149.5 175.4 150.1Q175.7 150.6 175.7 151.6V157H174.4V155.9H174.3Q174.2 156.2 173.9 156.5Q173.5 156.8 173.1 157Q172.6 157.2 171.9 157.2ZM172.1 156Q172.8 156 173.3 155.7Q173.8 155.5 174.1 155Q174.4 154.5 174.4 154V152.9Q174.3 153 174 153.1Q173.7 153.2 173.4 153.2Q173 153.3 172.7 153.3Q172.4 153.4 172.2 153.4Q171.7 153.4 171.3 153.6Q170.9 153.7 170.7 154Q170.4 154.3 170.4 154.7Q170.4 155.2 170.6 155.4Q170.8 155.7 171.2 155.9Q171.6 156 172.1 156ZM178 160.1V148.8H179.3V150.1H179.4Q179.6 149.9 179.8 149.6Q180.1 149.2 180.5 149Q181 148.7 181.8 148.7Q182.8 148.7 183.6 149.2Q184.4 149.7 184.8 150.7Q185.3 151.6 185.3 152.9Q185.3 154.2 184.8 155.2Q184.4 156.1 183.6 156.7Q182.8 157.2 181.8 157.2Q181 157.2 180.5 156.9Q180.1 156.6 179.8 156.3Q179.6 156 179.4 155.7H179.3V160.1ZM181.6 156Q182.4 156 182.9 155.6Q183.4 155.2 183.7 154.5Q183.9 153.8 183.9 152.9Q183.9 152.1 183.7 151.4Q183.4 150.7 182.9 150.3Q182.4 149.9 181.6 149.9Q180.8 149.9 180.3 150.3Q179.8 150.6 179.6 151.3Q179.3 152 179.3 152.9Q179.3 153.8 179.6 154.5Q179.8 155.2 180.3 155.6Q180.9 156 181.6 156ZM187.2 160.1V148.8H188.5V150.1H188.6Q188.7 149.9 189 149.6Q189.2 149.2 189.7 149Q190.2 148.7 191 148.7Q192 148.7 192.8 149.2Q193.6 149.7 194 150.7Q194.5 151.6 194.5 152.9Q194.5 154.2 194 155.2Q193.6 156.1 192.8 156.7Q192 157.2 191 157.2Q190.2 157.2 189.7 156.9Q189.3 156.6 189 156.3Q188.7 156 188.6 155.7H188.5V160.1ZM190.8 156Q191.6 156 192.1 155.6Q192.6 155.2 192.9 154.5Q193.1 153.8 193.1 152.9Q193.1 152.1 192.9 151.4Q192.6 150.7 192.1 150.3Q191.6 149.9 190.8 149.9Q190 149.9 189.5 150.3Q189 150.6 188.7 151.3Q188.5 152 188.5 152.9Q188.5 153.8 188.8 154.5Q189 155.2 189.5 155.6Q190 156 190.8 156Z"/>
<line x1="310.0" y1="132.5" x2="337.0" y2="132.5" stroke="#6366f1" stroke-width="2"/>
<path d="M346.0 132.5 L336.0 127.5 L336.0 137.5 Z" fill="#6366f1"/>
<rect x="352.0" y="74" width="264.0" height="117" rx="16" fill="#111113" fill-opacity="0.92" stroke="#26262b" stroke-width="1.2"/>
<rect x="372.0" y="94" width="22" height="2" fill="#6366f1"/>
<path fill="#f4f4f5" d="M373.4 130V118.1H375.6V127.9H381V130ZM387.9 130.2Q385.9 130.2 384.7 129Q383.5 127.7 383.5 125.4V122.7Q383.5 120.4 384.7 119.1Q385.9 117.9 387.9 117.9Q389.9 117.9 391.1 119.1Q392.3 120.4 392.3 122.7V125.4Q392.3 127.7 391.1 129Q389.9 130.2 387.9 130.2ZM387.9 128.2Q389.1 128.2 389.6 127.5Q390 126.7 390 125.5V122.6Q390 121.8 389.8 121.2Q389.6 120.6 389.1 120.3Q388.7 119.9 387.9 119.9Q387.1 119.9 386.7 120.3Q386.2 120.6 386 121.2Q385.8 121.8 385.8 122.6V125.5Q385.8 126.7 386.2 127.5Q386.7 128.2 387.9 128.2ZM393.7 130 396.5 118.1H400.7L403.6 130H401.2L400.6 127.5H396.6L396 130ZM397.1 125.3H400.1L398.8 119.2H398.5ZM404.9 130V127.8H406V120.2H404.9V118.1H409.2Q411.4 118.1 412.5 119.1Q413.6 120.2 413.6 122.3V125.8Q413.6 127.9 412.5 129Q411.4 130 409.2 130ZM408.3 127.9H409.2Q410.4 127.9 410.9 127.3Q411.3 126.8 411.3 125.6V122.3Q411.3 121.3 410.9 120.8Q410.4 120.2 409.2 120.2H408.3ZM416.2 130V118.1H423.7V120.2H418.5V123H423.5V125.1H418.5V127.9H423.9V130ZM426.8 130V118.1H431.3Q432.5 118.1 433.4 118.5Q434.2 119 434.6 119.7Q435.1 120.5 435.1 121.4V121.8Q435.1 122.5 434.7 123.2Q434.3 123.8 433.5 124.1V124.4Q434.1 124.5 434.4 124.9Q434.8 125.3 434.8 125.9V130H432.5V126.4Q432.5 126 432.3 125.8Q432.1 125.5 431.6 125.5H429V130ZM429 123.4H431.1Q432 123.4 432.4 123Q432.8 122.6 432.8 121.9V121.7Q432.8 121.1 432.4 120.7Q432 120.2 431.1 120.2H429Z"/>
<path fill="#a1a1aa" d="M375.9 157.2Q375.1 157.2 374.4 156.9Q373.8 156.7 373.4 156.2Q372.9 155.7 372.8 155L374 154.7Q374.2 155.4 374.7 155.7Q375.2 156 375.9 156Q376.8 156 377.3 155.7Q377.8 155.3 377.8 154.8Q377.8 154.4 377.5 154.1Q377.2 153.8 376.6 153.7L375.2 153.3Q374.1 153.1 373.6 152.5Q373 152 373 151.1Q373 150.4 373.4 149.9Q373.8 149.3 374.5 149Q375.2 148.7 376.1 148.7Q376.9 148.7 377.5 149Q378.1 149.2 378.5 149.7Q378.8 150.1 379 150.7L377.8 151Q377.7 150.5 377.3 150.2Q376.9 149.8 376.1 149.8Q375.3 149.8 374.9 150.2Q374.4 150.5 374.4 151Q374.4 151.5 374.7 151.7Q375 152 375.8 152.2L377 152.5Q378.1 152.7 378.6 153.3Q379.2 153.9 379.2 154.7Q379.2 155.4 378.8 156Q378.4 156.5 377.6 156.9Q376.9 157.2 375.9 157.2ZM381.1 157V148.8H382.4L382.4 150.6H382.3Q382.4 150 382.8 149.5Q383.2 149.1 383.6 148.9Q384.1 148.7 384.7 148.7Q385.5 148.7 386.1 149.2Q386.7 149.8 386.8 150.7H386.6Q386.8 150 387.2 149.6Q387.6 149.1 388.1 148.9Q388.7 148.7 389.3 148.7Q390 148.7 390.6 149Q391.2 149.3 391.6 149.9Q391.9 150.5 391.9 151.5V157H390.6V151.5Q390.6 150.6 390.1 150.2Q389.6 149.9 388.9 149.9Q388.4 149.9 388 150.1Q387.6 150.3 387.4 150.7Q387.1 151.1 387.1 151.7V157H385.8V151.4Q385.8 150.7 385.4 150.3Q384.9 149.9 384.2 149.9Q383.7 149.9 383.3 150.1Q382.9 150.3 382.6 150.8Q382.4 151.2 382.4 151.8V157ZM396.5 157.2Q395.7 157.2 395.1 156.9Q394.5 156.6 394.1 156Q393.7 155.5 393.7 154.7Q393.7 154 394 153.5Q394.3 153.1 394.7 152.8Q395.2 152.6 395.8 152.5Q396.3 152.3 396.9 152.3Q397.6 152.2 398.1 152.1Q398.6 152.1 398.8 151.9Q399 151.8 399 151.5V151.5Q399 151 398.8 150.6Q398.6 150.2 398.2 150.1Q397.9 149.9 397.3 149.9Q396.7 149.9 396.3 150Q395.9 150.2 395.6 150.5Q395.3 150.8 395.2 151.1L394 150.6Q394.3 149.9 394.8 149.5Q395.3 149.1 396 148.9Q396.6 148.7 397.3 148.7Q397.7 148.7 398.2 148.8Q398.7 148.9 399.2 149.2Q399.7 149.5 400 150.1Q400.3 150.6 400.3 151.6V157H399V155.9H398.9Q398.8 156.2 398.5 156.5Q398.2 156.8 397.7 157Q397.2 157.2 396.5 157.2ZM396.7 156Q397.5 156 398 155.7Q398.5 155.5 398.7 155Q399 154.5 399 154V152.9Q398.9 153 398.7 153.1Q398.4 153.2 398 153.2Q397.7 153.3 397.4 153.3Q397 153.4 396.8 153.4Q396.4 153.4 396 153.6Q395.5 153.7 395.3 154Q395 154.3 395 154.7Q395 155.2 395.3 155.4Q395.5 155.7 395.9 155.9Q396.2 156 396.7 156ZM404 146.1V157H402.6V146.1ZM407.6 146.1V157H406.3V146.1ZM417.6 157.2Q416.4 157.2 415.5 156.6Q414.7 156.1 414.2 155.2Q413.7 154.2 413.7 153Q413.7 151.7 414.2 150.8Q414.6 149.8 415.5 149.3Q416.3 148.7 417.4 148.7Q418.1 148.7 418.7 148.9Q419.3 149.1 419.8 149.6Q420.4 150.1 420.7 150.9Q421 151.7 421 152.8V153.4H414.6V152.2H420.3L419.7 152.6Q419.7 151.8 419.4 151.2Q419.1 150.6 418.6 150.2Q418.1 149.9 417.4 149.9Q416.7 149.9 416.1 150.2Q415.6 150.6 415.3 151.2Q415.1 151.8 415.1 152.4V153.2Q415.1 154.1 415.4 154.7Q415.7 155.4 416.3 155.7Q416.8 156 417.6 156Q418.1 156 418.5 155.9Q418.8 155.7 419.1 155.4Q419.4 155.2 419.6 154.7L420.8 155.1Q420.7 155.7 420.2 156.2Q419.7 156.6 419.1 156.9Q418.4 157.2 417.6 157.2ZM424.2 146.1V157H422.9V146.1ZM429.9 157.2Q428.8 157.2 427.9 156.6Q427 156.1 426.6 155.2Q426.1 154.2 426.1 153Q426.1 151.7 426.6 150.8Q427 149.8 427.8 149.3Q428.7 148.7 429.8 148.7Q430.4 148.7 431.1 148.9Q431.7 149.1 432.2 149.6Q432.7 150.1 433 150.9Q433.4 151.7 433.4 152.8V153.4H427V152.2H432.6L432 152.6Q432 151.8 431.8 151.2Q431.5 150.6 431 150.2Q430.5 149.9 429.8 149.9Q429 149.9 428.5 150.2Q428 150.6 427.7 151.2Q427.4 151.8 427.4 152.4V153.2Q427.4 154.1 427.8 154.7Q428.1 155.4 428.6 155.7Q429.2 156 429.9 156Q430.4 156 430.8 155.9Q431.2 155.7 431.5 155.4Q431.8 155.2 431.9 154.7L433.2 155.1Q433 155.7 432.6 156.2Q432.1 156.6 431.5 156.9Q430.8 157.2 429.9 157.2ZM435.2 157V148.8H436.5L436.5 150.6H436.4Q436.6 150 437 149.5Q437.3 149.1 437.8 148.9Q438.3 148.7 438.8 148.7Q439.7 148.7 440.3 149.2Q440.8 149.8 441 150.7H440.8Q441 150 441.3 149.6Q441.7 149.1 442.3 148.9Q442.8 148.7 443.5 148.7Q444.2 148.7 444.8 149Q445.4 149.3 445.7 149.9Q446.1 150.5 446.1 151.5V157H444.8V151.5Q444.8 150.6 444.3 150.2Q443.8 149.9 443.1 149.9Q442.5 149.9 442.1 150.1Q441.7 150.3 441.5 150.7Q441.3 151.1 441.3 151.7V157H440V151.4Q440 150.7 439.5 150.3Q439.1 149.9 438.4 149.9Q437.9 149.9 437.5 150.1Q437.1 150.3 436.8 150.8Q436.6 151.2 436.6 151.8V157ZM451.8 157.2Q450.6 157.2 449.8 156.6Q448.9 156.1 448.5 155.2Q448 154.2 448 153Q448 151.7 448.4 150.8Q448.9 149.8 449.7 149.3Q450.6 148.7 451.7 148.7Q452.3 148.7 453 148.9Q453.6 149.1 454.1 149.6Q454.6 150.1 454.9 150.9Q455.2 151.7 455.2 152.8V153.4H448.9V152.2H454.5L453.9 152.6Q453.9 151.8 453.7 151.2Q453.4 150.6 452.9 150.2Q452.4 149.9 451.7 149.9Q450.9 149.9 450.4 150.2Q449.9 150.6 449.6 151.2Q449.3 151.8 449.3 152.4V153.2Q449.3 154.1 449.6 154.7Q450 155.4 450.5 155.7Q451.1 156 451.8 156Q452.3 156 452.7 155.9Q453.1 155.7 453.4 155.4Q453.7 155.2 453.8 154.7L455.1 155.1Q454.9 155.7 454.5 156.2Q454 156.6 453.3 156.9Q452.7 157.2 451.8 157.2ZM458.4 152.1V157H457.1V148.8H458.4L458.4 150.8H458.2Q458.6 149.7 459.3 149.2Q460 148.7 460.9 148.7Q461.7 148.7 462.4 149Q463 149.4 463.3 150.1Q463.7 150.8 463.7 151.8V157H462.4V151.9Q462.4 151 461.9 150.4Q461.4 149.9 460.5 149.9Q459.9 149.9 459.5 150.2Q459 150.4 458.7 150.9Q458.4 151.4 458.4 152.1ZM469.2 148.8V149.9H465V148.8ZM466.2 146.9H467.5V154.9Q467.5 155.4 467.8 155.7Q468 155.9 468.5 155.9Q468.6 155.9 468.8 155.9Q469 155.9 469.2 155.8L469.4 157Q469.2 157 469 157.1Q468.7 157.1 468.5 157.1Q467.4 157.1 466.8 156.5Q466.2 156 466.2 155Z"/>
<line x1="622.0" y1="132.5" x2="649.0" y2="132.5" stroke="#6366f1" stroke-width="2"/>
<path d="M658.0 132.5 L648.0 127.5 L648.0 137.5 Z" fill="#6366f1"/>
<rect x="664.0" y="74" width="264.0" height="117" rx="16" fill="#111113" fill-opacity="0.92" stroke="#6366f1" stroke-width="1.6"/>
<rect x="684.0" y="94" width="22" height="2" fill="#6366f1"/>
<path fill="#f4f4f5" d="M685.2 130V127.9H688.1V120.2H685.2V118.1H693.2V120.2H690.3V127.9H693.2V130ZM696.2 130V118.1H703.8V120.2H698.4V123H703.7V125.1H698.4V130ZM706.6 130V118.1H711.2Q712.4 118.1 713.3 118.5Q714.1 119 714.5 119.7Q714.9 120.5 714.9 121.4V121.8Q714.9 122.5 714.5 123.2Q714.1 123.8 713.3 124.1V124.4Q713.9 124.5 714.3 124.9Q714.6 125.3 714.6 125.9V130H712.4V126.4Q712.4 126 712.2 125.8Q712 125.5 711.5 125.5H708.9V130ZM708.9 123.4H711Q711.9 123.4 712.3 123Q712.7 122.6 712.7 121.9V121.7Q712.7 121.1 712.3 120.7Q711.9 120.2 711 120.2H708.9ZM716.4 130 719.2 118.1H723.4L726.3 130H723.9L723.3 127.5H719.3L718.7 130ZM719.8 125.3H722.8L721.5 119.2H721.2ZM727.2 130V118.1H731.1L731.8 127V128.8H732.2V127L732.9 118.1H736.8V130H734.8V122L735 119.3H734.6L733.7 130H730.4L729.4 119.3H729L729.2 122V130ZM738.9 130V118.1H746.4V120.2H741.2V123H746.2V125.1H741.2V127.9H746.6V130Z"/>
<path fill="#a1a1aa" d="M688.5 157.2Q687.4 157.2 686.5 156.6Q685.7 156.1 685.2 155.2Q684.8 154.2 684.8 153Q684.8 151.7 685.2 150.7Q685.7 149.8 686.5 149.2Q687.4 148.7 688.5 148.7Q689.1 148.7 689.6 148.9Q690.1 149 690.6 149.3Q691 149.6 691.3 150Q691.6 150.4 691.8 151L690.5 151.3Q690.5 151 690.3 150.8Q690.1 150.5 689.8 150.3Q689.6 150.1 689.2 150Q688.9 149.9 688.5 149.9Q687.7 149.9 687.1 150.3Q686.6 150.7 686.4 151.4Q686.1 152.1 686.1 153Q686.1 153.8 686.4 154.5Q686.6 155.1 687.1 155.6Q687.7 156 688.5 156Q688.9 156 689.2 155.9Q689.6 155.8 689.9 155.6Q690.1 155.4 690.3 155.1Q690.5 154.8 690.6 154.5L691.8 154.8Q691.7 155.4 691.4 155.8Q691 156.3 690.6 156.6Q690.2 156.9 689.6 157Q689.1 157.2 688.5 157.2ZM695 152.1V157H693.7V146.1H695V150.8H694.8Q695.2 149.7 695.9 149.2Q696.6 148.7 697.5 148.7Q698.3 148.7 699 149Q699.6 149.4 699.9 150.1Q700.3 150.8 700.3 151.8V157H699V151.9Q699 151 698.5 150.4Q698 149.9 697.1 149.9Q696.5 149.9 696.1 150.2Q695.6 150.4 695.3 150.9Q695 151.4 695 152.1ZM704.9 157.2Q704.1 157.2 703.5 156.9Q702.8 156.6 702.5 156Q702.1 155.5 702.1 154.7Q702.1 154 702.4 153.5Q702.7 153.1 703.1 152.8Q703.6 152.6 704.1 152.5Q704.7 152.3 705.3 152.3Q706 152.2 706.5 152.1Q706.9 152.1 707.2 151.9Q707.4 151.8 707.4 151.5V151.5Q707.4 151 707.2 150.6Q707 150.2 706.6 150.1Q706.2 149.9 705.7 149.9Q705.1 149.9 704.7 150Q704.3 150.2 704 150.5Q703.7 150.8 703.6 151.1L702.3 150.6Q702.6 149.9 703.2 149.5Q703.7 149.1 704.4 148.9Q705 148.7 705.6 148.7Q706 148.7 706.6 148.8Q707.1 148.9 707.6 149.2Q708.1 149.5 708.4 150.1Q708.7 150.6 708.7 151.6V157H707.4V155.9H707.3Q707.2 156.2 706.9 156.5Q706.6 156.8 706.1 157Q705.6 157.2 704.9 157.2ZM705.1 156Q705.8 156 706.4 155.7Q706.9 155.5 707.1 155Q707.4 154.5 707.4 154V152.9Q707.3 153 707 153.1Q706.8 153.2 706.4 153.2Q706.1 153.3 705.7 153.3Q705.4 153.4 705.2 153.4Q704.7 153.4 704.3 153.6Q703.9 153.7 703.7 154Q703.4 154.3 703.4 154.7Q703.4 155.2 703.6 155.4Q703.9 155.7 704.2 155.9Q704.6 156 705.1 156ZM714.2 148.8V149.9H710V148.8ZM711.2 146.9H712.6V154.9Q712.6 155.4 712.8 155.7Q713 155.9 713.5 155.9Q713.6 155.9 713.8 155.9Q714 155.9 714.2 155.8L714.5 157Q714.3 157 714 157.1Q713.7 157.1 713.5 157.1Q712.4 157.1 711.8 156.5Q711.2 156 711.2 155ZM715.7 159.6 716.4 155.5H717.9L716.7 159.6ZM726.8 157 723.7 148.8H725.1L726.9 153.7Q727.2 154.4 727.4 155.2Q727.6 155.9 727.8 156.6H727.3Q727.5 155.9 727.7 155.2Q727.9 154.4 728.2 153.7L729.9 148.8H731.3L728.2 157ZM732.9 157V148.8H734.2V157ZM733.6 147.5Q733.2 147.5 732.9 147.2Q732.6 147 732.6 146.6Q732.6 146.2 732.9 146Q733.2 145.7 733.6 145.7Q733.9 145.7 734.2 146Q734.5 146.2 734.5 146.6Q734.5 147 734.2 147.2Q733.9 147.5 733.6 147.5ZM739.3 157.2Q738.5 157.2 737.8 156.9Q737.2 156.7 736.7 156.2Q736.3 155.7 736.2 155L737.4 154.7Q737.6 155.4 738.1 155.7Q738.6 156 739.3 156Q740.2 156 740.7 155.7Q741.2 155.3 741.2 154.8Q741.2 154.4 740.9 154.1Q740.6 153.8 740 153.7L738.6 153.3Q737.5 153.1 737 152.5Q736.4 152 736.4 151.1Q736.4 150.4 736.8 149.9Q737.2 149.3 737.9 149Q738.6 148.7 739.4 148.7Q740.3 148.7 740.9 149Q741.5 149.2 741.8 149.7Q742.2 150.1 742.4 150.7L741.2 151Q741 150.5 740.6 150.2Q740.2 149.8 739.5 149.8Q738.7 149.8 738.2 150.2Q737.7 150.5 737.7 151Q737.7 151.5 738.1 151.7Q738.4 152 739.1 152.2L740.4 152.5Q741.5 152.7 742 153.3Q742.5 153.9 742.5 154.7Q742.5 155.4 742.1 156Q741.7 156.5 741 156.9Q740.3 157.2 739.3 157.2ZM744.4 157V148.8H745.8V157ZM745.1 147.5Q744.7 147.5 744.5 147.2Q744.2 147 744.2 146.6Q744.2 146.2 744.5 146Q744.7 145.7 745.1 145.7Q745.5 145.7 745.8 146Q746 146.2 746 146.6Q746 147 745.8 147.2Q745.5 147.5 745.1 147.5ZM751.4 157.2Q750.3 157.2 749.5 156.6Q748.6 156.1 748.2 155.2Q747.7 154.2 747.7 153Q747.7 151.7 748.2 150.7Q748.6 149.8 749.5 149.2Q750.3 148.7 751.4 148.7Q752.5 148.7 753.4 149.2Q754.2 149.8 754.7 150.7Q755.2 151.7 755.2 153Q755.2 154.2 754.7 155.2Q754.2 156.1 753.4 156.6Q752.5 157.2 751.4 157.2ZM751.4 156Q752.2 156 752.8 155.6Q753.3 155.1 753.6 154.5Q753.8 153.8 753.8 153Q753.8 152.1 753.6 151.4Q753.3 150.7 752.8 150.3Q752.2 149.9 751.4 149.9Q750.6 149.9 750.1 150.3Q749.5 150.7 749.3 151.4Q749 152.1 749 153Q749 153.8 749.3 154.5Q749.5 155.1 750.1 155.6Q750.6 156 751.4 156ZM758.4 152.1V157H757.1V148.8H758.3L758.3 150.8H758.2Q758.5 149.7 759.2 149.2Q759.9 148.7 760.9 148.7Q761.7 148.7 762.3 149Q762.9 149.4 763.3 150.1Q763.6 150.8 763.6 151.8V157H762.3V151.9Q762.3 151 761.8 150.4Q761.3 149.9 760.5 149.9Q759.9 149.9 759.4 150.2Q758.9 150.4 758.7 150.9Q758.4 151.4 758.4 152.1Z"/>
<line x1="934.0" y1="132.5" x2="961.0" y2="132.5" stroke="#6366f1" stroke-width="2"/>
<path d="M970.0 132.5 L960.0 127.5 L960.0 137.5 Z" fill="#6366f1"/>
<rect x="976.0" y="74" width="264.0" height="117" rx="16" fill="#111113" fill-opacity="0.92" stroke="#26262b" stroke-width="1.2"/>
<rect x="996.0" y="94" width="22" height="2" fill="#6366f1"/>
<path fill="#f4f4f5" d="M1001.4 130.2Q999.8 130.2 998.7 129.7Q997.7 129.1 997.1 128.1Q996.6 127.1 996.6 125.9V125.4H998.9V125.8Q998.9 126.9 999.5 127.5Q1000.1 128.1 1001.4 128.1Q1002.4 128.1 1002.9 127.7Q1003.4 127.2 1003.4 126.6Q1003.4 126.2 1003.2 125.9Q1003 125.6 1002.5 125.3Q1002.1 125.1 1001.1 124.9Q999.9 124.7 999 124.3Q998.1 123.9 997.6 123.2Q997 122.5 997 121.4V121.3Q997 120.3 997.5 119.5Q998 118.7 999 118.3Q999.9 117.9 1001.1 117.9Q1002.5 117.9 1003.5 118.4Q1004.5 118.9 1005 119.7Q1005.5 120.6 1005.5 121.5V122.1H1003.2V121.7Q1003.2 121 1002.7 120.5Q1002.1 120 1001.1 120Q1000.3 120 999.8 120.3Q999.3 120.7 999.3 121.3Q999.3 121.9 999.8 122.2Q1000.4 122.6 1001.8 122.9Q1003.7 123.2 1004.7 124Q1005.7 124.8 1005.7 126.4V126.6Q1005.7 128.2 1004.5 129.2Q1003.4 130.2 1001.4 130.2ZM1008.1 130V118.1H1015.6V120.2H1010.3V123H1015.4V125.1H1010.3V127.9H1015.8V130ZM1018.6 130V118.1H1023.2Q1024.4 118.1 1025.3 118.5Q1026.1 119 1026.5 119.7Q1026.9 120.5 1026.9 121.4V121.8Q1026.9 122.5 1026.5 123.2Q1026.1 123.8 1025.3 124.1V124.4Q1025.9 124.5 1026.3 124.9Q1026.6 125.3 1026.6 125.9V130H1024.4V126.4Q1024.4 126 1024.2 125.8Q1024 125.5 1023.5 125.5H1020.9V130ZM1020.9 123.4H1023Q1023.9 123.4 1024.3 123Q1024.7 122.6 1024.7 121.9V121.7Q1024.7 121.1 1024.3 120.7Q1023.9 120.2 1023 120.2H1020.9ZM1031.2 130 1028.5 118.1H1030.8L1033.2 128.9H1033.5L1035.8 118.1H1038.1L1035.4 130ZM1040 130V127.9H1042.9V120.2H1040V118.1H1048V120.2H1045.1V127.9H1048V130ZM1054.8 130.2Q1052.7 130.2 1051.5 129Q1050.3 127.7 1050.3 125.4V122.7Q1050.3 120.4 1051.5 119.1Q1052.7 117.9 1054.8 117.9Q1056.9 117.9 1058 119.1Q1059.1 120.2 1059.1 122.3V122.6H1056.9V122.3Q1056.9 121.7 1056.7 121.2Q1056.5 120.6 1056 120.3Q1055.6 119.9 1054.8 119.9Q1054 119.9 1053.5 120.3Q1053 120.6 1052.8 121.2Q1052.6 121.8 1052.6 122.6V125.5Q1052.6 126.7 1053.1 127.5Q1053.6 128.2 1054.8 128.2Q1055.6 128.2 1056.1 127.9Q1056.5 127.5 1056.7 127Q1056.9 126.4 1056.9 125.8V125.5H1059.1V125.8Q1059.1 127.9 1058 129.1Q1056.9 130.2 1054.8 130.2ZM1061.6 130V118.1H1069.1V120.2H1063.9V123H1068.9V125.1H1063.9V127.9H1069.3V130ZM1076.3 130.2Q1074.7 130.2 1073.7 129.7Q1072.6 129.1 1072.1 128.1Q1071.5 127.1 1071.5 125.9V125.4H1073.8V125.8Q1073.8 126.9 1074.4 127.5Q1075 128.1 1076.3 128.1Q1077.4 128.1 1077.8 127.7Q1078.3 127.2 1078.3 126.6Q1078.3 126.2 1078.2 125.9Q1078 125.6 1077.5 125.3Q1077 125.1 1076.1 124.9Q1074.9 124.7 1073.9 124.3Q1073 123.9 1072.5 123.2Q1071.9 122.5 1071.9 121.4V121.3Q1071.9 120.3 1072.5 119.5Q1073 118.7 1073.9 118.3Q1074.8 117.9 1076.1 117.9Q1077.5 117.9 1078.4 118.4Q1079.4 118.9 1079.9 119.7Q1080.4 120.6 1080.4 121.5V122.1H1078.2V121.7Q1078.2 121 1077.6 120.5Q1077.1 120 1076.1 120Q1075.2 120 1074.7 120.3Q1074.2 120.7 1074.2 121.3Q1074.2 121.9 1074.8 122.2Q1075.3 122.6 1076.8 122.9Q1078.6 123.2 1079.6 124Q1080.6 124.8 1080.6 126.4V126.6Q1080.6 128.2 1079.5 129.2Q1078.3 130.2 1076.3 130.2Z"/>
<path fill="#a1a1aa" d="M998.5 146.1V157H997.2V146.1ZM1002.1 146.1V157H1000.8V146.1ZM1004.4 157V148.8H1005.7L1005.7 150.6H1005.6Q1005.8 150 1006.1 149.5Q1006.5 149.1 1007 148.9Q1007.5 148.7 1008 148.7Q1008.9 148.7 1009.5 149.2Q1010 149.8 1010.2 150.7H1010Q1010.1 150 1010.5 149.6Q1010.9 149.1 1011.5 148.9Q1012 148.7 1012.7 148.7Q1013.4 148.7 1014 149Q1014.6 149.3 1014.9 149.9Q1015.2 150.5 1015.2 151.5V157H1013.9V151.5Q1013.9 150.6 1013.4 150.2Q1012.9 149.9 1012.3 149.9Q1011.7 149.9 1011.3 150.1Q1010.9 150.3 1010.7 150.7Q1010.5 151.1 1010.5 151.7V157H1009.2V151.4Q1009.2 150.7 1008.7 150.3Q1008.3 149.9 1007.6 149.9Q1007.1 149.9 1006.7 150.1Q1006.3 150.3 1006 150.8Q1005.7 151.2 1005.7 151.8V157ZM1017.3 159.6 1018 155.5H1019.5L1018.4 159.6ZM1028.5 157 1025.3 148.8H1026.8L1028.5 153.7Q1028.8 154.4 1029 155.2Q1029.2 155.9 1029.4 156.6H1028.9Q1029.1 155.9 1029.3 155.2Q1029.5 154.4 1029.8 153.7L1031.5 148.8H1033L1029.9 157ZM1034.5 157V148.8H1035.9V157ZM1035.2 147.5Q1034.8 147.5 1034.6 147.2Q1034.3 147 1034.3 146.6Q1034.3 146.2 1034.6 146Q1034.8 145.7 1035.2 145.7Q1035.6 145.7 1035.9 146Q1036.1 146.2 1036.1 146.6Q1036.1 147 1035.9 147.2Q1035.6 147.5 1035.2 147.5ZM1040.9 157.2Q1040.1 157.2 1039.5 156.9Q1038.8 156.7 1038.4 156.2Q1037.9 155.7 1037.8 155L1039.1 154.7Q1039.2 155.4 1039.7 155.7Q1040.2 156 1040.9 156Q1041.8 156 1042.3 155.7Q1042.8 155.3 1042.8 154.8Q1042.8 154.4 1042.5 154.1Q1042.2 153.8 1041.6 153.7L1040.2 153.3Q1039.1 153.1 1038.6 152.5Q1038 152 1038 151.1Q1038 150.4 1038.4 149.9Q1038.8 149.3 1039.5 149Q1040.2 148.7 1041.1 148.7Q1041.9 148.7 1042.5 149Q1043.1 149.2 1043.5 149.7Q1043.8 150.1 1044 150.7L1042.8 151Q1042.7 150.5 1042.3 150.2Q1041.9 149.8 1041.1 149.8Q1040.4 149.8 1039.9 150.2Q1039.4 150.5 1039.4 151Q1039.4 151.5 1039.7 151.7Q1040 152 1040.8 152.2L1042 152.5Q1043.1 152.7 1043.6 153.3Q1044.2 153.9 1044.2 154.7Q1044.2 155.4 1043.8 156Q1043.4 156.5 1042.6 156.9Q1041.9 157.2 1040.9 157.2ZM1046.1 157V148.8H1047.4V157ZM1046.7 147.5Q1046.4 147.5 1046.1 147.2Q1045.8 147 1045.8 146.6Q1045.8 146.2 1046.1 146Q1046.4 145.7 1046.7 145.7Q1047.1 145.7 1047.4 146Q1047.7 146.2 1047.7 146.6Q1047.7 147 1047.4 147.2Q1047.1 147.5 1046.7 147.5ZM1053 157.2Q1051.9 157.2 1051.1 156.6Q1050.3 156.1 1049.8 155.2Q1049.3 154.2 1049.3 153Q1049.3 151.7 1049.8 150.7Q1050.3 149.8 1051.1 149.2Q1051.9 148.7 1053 148.7Q1054.2 148.7 1055 149.2Q1055.9 149.8 1056.3 150.7Q1056.8 151.7 1056.8 153Q1056.8 154.2 1056.3 155.2Q1055.9 156.1 1055 156.6Q1054.2 157.2 1053 157.2ZM1053 156Q1053.9 156 1054.4 155.6Q1054.9 155.1 1055.2 154.5Q1055.5 153.8 1055.5 153Q1055.5 152.1 1055.2 151.4Q1054.9 150.7 1054.4 150.3Q1053.9 149.9 1053 149.9Q1052.2 149.9 1051.7 150.3Q1051.2 150.7 1050.9 151.4Q1050.7 152.1 1050.7 153Q1050.7 153.8 1050.9 154.5Q1051.2 155.1 1051.7 155.6Q1052.2 156 1053 156ZM1060 152.1V157H1058.7V148.8H1060L1060 150.8H1059.8Q1060.2 149.7 1060.9 149.2Q1061.6 148.7 1062.5 148.7Q1063.3 148.7 1063.9 149Q1064.6 149.4 1064.9 150.1Q1065.3 150.8 1065.3 151.8V157H1063.9V151.9Q1063.9 151 1063.4 150.4Q1063 149.9 1062.1 149.9Q1061.5 149.9 1061 150.2Q1060.6 150.4 1060.3 150.9Q1060 151.4 1060 152.1ZM1067.4 159.6 1068 155.5H1069.5L1068.4 159.6ZM1076.1 157V148.8H1077.4V157ZM1076.8 147.5Q1076.4 147.5 1076.1 147.2Q1075.9 147 1075.9 146.6Q1075.9 146.2 1076.1 146Q1076.4 145.7 1076.8 145.7Q1077.2 145.7 1077.4 146Q1077.7 146.2 1077.7 146.6Q1077.7 147 1077.4 147.2Q1077.2 147.5 1076.8 147.5ZM1082.8 157.2Q1081.8 157.2 1081 156.7Q1080.2 156.1 1079.8 155.2Q1079.3 154.2 1079.3 152.9Q1079.3 151.6 1079.8 150.7Q1080.2 149.7 1081 149.2Q1081.8 148.7 1082.8 148.7Q1083.6 148.7 1084.1 149Q1084.6 149.2 1084.8 149.6Q1085.1 149.9 1085.2 150.1H1085.3V146.1H1086.6V157H1085.3V155.7H1085.2Q1085.1 156 1084.8 156.3Q1084.5 156.6 1084.1 156.9Q1083.6 157.2 1082.8 157.2ZM1083 156Q1083.8 156 1084.3 155.6Q1084.8 155.2 1085 154.5Q1085.3 153.8 1085.3 152.9Q1085.3 152 1085.1 151.3Q1084.8 150.6 1084.3 150.3Q1083.8 149.9 1083 149.9Q1082.2 149.9 1081.7 150.3Q1081.2 150.7 1080.9 151.4Q1080.7 152.1 1080.7 152.9Q1080.7 153.8 1080.9 154.5Q1081.2 155.2 1081.7 155.6Q1082.2 156 1083 156ZM1092.4 157.2Q1091.2 157.2 1090.3 156.6Q1089.5 156.1 1089 155.2Q1088.5 154.2 1088.5 153Q1088.5 151.7 1089 150.8Q1089.4 149.8 1090.3 149.3Q1091.1 148.7 1092.2 148.7Q1092.9 148.7 1093.5 148.9Q1094.1 149.1 1094.7 149.6Q1095.2 150.1 1095.5 150.9Q1095.8 151.7 1095.8 152.8V153.4H1089.4V152.2H1095.1L1094.5 152.6Q1094.5 151.8 1094.2 151.2Q1094 150.6 1093.5 150.2Q1093 149.9 1092.2 149.9Q1091.5 149.9 1091 150.2Q1090.4 150.6 1090.1 151.2Q1089.9 151.8 1089.9 152.4V153.2Q1089.9 154.1 1090.2 154.7Q1090.5 155.4 1091.1 155.7Q1091.6 156 1092.4 156Q1092.9 156 1093.3 155.9Q1093.7 155.7 1093.9 155.4Q1094.2 155.2 1094.4 154.7L1095.7 155.1Q1095.5 155.7 1095 156.2Q1094.6 156.6 1093.9 156.9Q1093.2 157.2 1092.4 157.2ZM1099 152.1V157H1097.7V148.8H1098.9L1098.9 150.8H1098.8Q1099.1 149.7 1099.8 149.2Q1100.5 148.7 1101.5 148.7Q1102.3 148.7 1102.9 149Q1103.5 149.4 1103.9 150.1Q1104.2 150.8 1104.2 151.8V157H1102.9V151.9Q1102.9 151 1102.4 150.4Q1101.9 149.9 1101.1 149.9Q1100.5 149.9 1100 150.2Q1099.5 150.4 1099.3 150.9Q1099 151.4 1099 152.1ZM1109.8 148.8V149.9H1105.5V148.8ZM1106.8 146.9H1108.1V154.9Q1108.1 155.4 1108.3 155.7Q1108.5 155.9 1109 155.9Q1109.2 155.9 1109.4 155.9Q1109.6 155.9 1109.7 155.8L1110 157Q1109.8 157 1109.5 157.1Q1109.3 157.1 1109 157.1Q1107.9 157.1 1107.4 156.5Q1106.8 156 1106.8 155ZM1111.4 157V148.8H1112.8V157ZM1112.1 147.5Q1111.7 147.5 1111.5 147.2Q1111.2 147 1111.2 146.6Q1111.2 146.2 1111.5 146Q1111.7 145.7 1112.1 145.7Q1112.5 145.7 1112.8 146Q1113 146.2 1113 146.6Q1113 147 1112.8 147.2Q1112.5 147.5 1112.1 147.5ZM1118.3 148.8V149.9H1114.1V148.8ZM1115.3 146.9H1116.6V154.9Q1116.6 155.4 1116.8 155.7Q1117.1 155.9 1117.6 155.9Q1117.7 155.9 1117.9 155.9Q1118.1 155.9 1118.3 155.8L1118.5 157Q1118.3 157 1118.1 157.1Q1117.8 157.1 1117.5 157.1Q1116.5 157.1 1115.9 156.5Q1115.3 156 1115.3 155ZM1119.9 160 1120.2 158.8 1120.3 158.9Q1120.7 159 1121.1 158.9Q1121.4 158.9 1121.7 158.6Q1121.9 158.3 1122.1 157.7L1122.4 157L1119.2 148.8H1120.7L1122.4 153.7Q1122.7 154.4 1122.9 155.2Q1123.1 155.9 1123.3 156.6H1122.8Q1123 155.9 1123.2 155.2Q1123.4 154.4 1123.7 153.7L1125.4 148.8H1126.9L1123.3 158.2Q1123 158.9 1122.7 159.3Q1122.3 159.7 1121.9 159.9Q1121.4 160.1 1120.8 160.1Q1120.5 160.1 1120.2 160.1Q1120 160 1119.9 160Z"/>
<path fill="#71717a" d="M40.8 214.7V213.4H49.6V214.7H45.9V225H44.4V214.7ZM53 219.8V225H51.6V213.4H53V218.4H52.7Q53.1 217.2 53.9 216.7Q54.6 216.2 55.6 216.2Q56.5 216.2 57.1 216.5Q57.8 216.9 58.2 217.6Q58.6 218.3 58.6 219.5V225H57.1V219.6Q57.1 218.6 56.6 218Q56.1 217.4 55.2 217.4Q54.5 217.4 54 217.7Q53.5 218 53.3 218.5Q53 219 53 219.8ZM64.7 225.2Q63.4 225.2 62.5 224.6Q61.6 224.1 61.1 223.1Q60.6 222 60.6 220.7Q60.6 219.4 61.1 218.3Q61.6 217.3 62.5 216.7Q63.3 216.2 64.5 216.2Q65.2 216.2 65.9 216.4Q66.6 216.6 67.1 217.1Q67.7 217.6 68 218.5Q68.3 219.3 68.3 220.5V221.1H61.6V219.9H67.6L66.9 220.4Q66.9 219.5 66.7 218.8Q66.4 218.2 65.9 217.8Q65.3 217.4 64.5 217.4Q63.7 217.4 63.2 217.8Q62.6 218.2 62.3 218.8Q62 219.4 62 220.1V220.9Q62 221.9 62.4 222.6Q62.7 223.2 63.3 223.6Q63.9 223.9 64.7 223.9Q65.2 223.9 65.6 223.8Q66.1 223.6 66.4 223.3Q66.7 223 66.8 222.6L68.2 223Q68 223.6 67.5 224.1Q67 224.6 66.3 224.9Q65.6 225.2 64.7 225.2ZM74.9 225V216.3H76.3V225ZM75.6 214.8Q75.2 214.8 74.9 214.6Q74.6 214.3 74.6 213.9Q74.6 213.5 74.9 213.2Q75.2 213 75.6 213Q76 213 76.3 213.2Q76.5 213.5 76.5 213.9Q76.5 214.3 76.3 214.6Q76 214.8 75.6 214.8ZM82.8 216.3V217.5H77.6V216.3ZM79.4 225V215.1Q79.4 214.3 79.7 213.8Q80.1 213.3 80.6 213.1Q81.2 212.8 81.9 212.8Q82.4 212.8 82.7 212.9Q83 213 83.2 213L82.8 214.2Q82.7 214.2 82.5 214.2Q82.3 214.1 82 214.1Q81.4 214.1 81.1 214.4Q80.8 214.8 80.8 215.4V225ZM84.6 225V216.3H86V217.6H86.1Q86.3 216.9 87 216.5Q87.6 216.1 88.4 216.1Q88.5 216.1 88.7 216.1Q89 216.2 89.1 216.2V217.6Q89 217.6 88.8 217.5Q88.5 217.5 88.2 217.5Q87.6 217.5 87.1 217.8Q86.6 218 86.3 218.5Q86.1 218.9 86.1 219.5V225ZM93.1 225.2Q92.3 225.2 91.6 224.9Q90.9 224.6 90.5 224Q90.1 223.4 90.1 222.5Q90.1 221.8 90.4 221.3Q90.7 220.8 91.2 220.6Q91.7 220.3 92.3 220.2Q92.9 220 93.5 219.9Q94.3 219.8 94.8 219.8Q95.3 219.7 95.5 219.6Q95.8 219.5 95.8 219.1V219.1Q95.8 218.6 95.6 218.2Q95.4 217.8 95 217.6Q94.6 217.4 94 217.4Q93.3 217.4 92.9 217.6Q92.4 217.8 92.2 218.1Q91.9 218.4 91.7 218.7L90.4 218.2Q90.7 217.4 91.3 217Q91.9 216.5 92.6 216.3Q93.2 216.2 93.9 216.2Q94.4 216.2 94.9 216.3Q95.5 216.4 96 216.7Q96.5 217 96.8 217.6Q97.2 218.2 97.2 219.2V225H95.8V223.8H95.7Q95.6 224.1 95.2 224.4Q94.9 224.8 94.4 225Q93.9 225.2 93.1 225.2ZM93.4 224Q94.1 224 94.7 223.7Q95.2 223.4 95.5 222.9Q95.8 222.4 95.8 221.8V220.6Q95.7 220.7 95.4 220.8Q95.1 220.9 94.7 221Q94.4 221 94 221.1Q93.7 221.1 93.5 221.1Q93 221.2 92.5 221.3Q92.1 221.5 91.8 221.8Q91.6 222.1 91.6 222.6Q91.6 223 91.8 223.3Q92 223.6 92.4 223.8Q92.8 224 93.4 224ZM99.7 225V216.3H101L101 218.2H100.9Q101.1 217.5 101.5 217Q101.9 216.6 102.4 216.3Q102.9 216.1 103.5 216.1Q104.4 216.1 105 216.7Q105.6 217.3 105.8 218.2H105.6Q105.8 217.6 106.2 217.1Q106.6 216.6 107.2 216.4Q107.8 216.1 108.5 216.1Q109.2 216.1 109.8 216.4Q110.5 216.8 110.8 217.4Q111.2 218.1 111.2 219.1V225H109.8V219.1Q109.8 218.2 109.3 217.8Q108.7 217.4 108 217.4Q107.4 217.4 107 217.6Q106.6 217.9 106.4 218.3Q106.1 218.7 106.1 219.3V225H104.7V219Q104.7 218.3 104.2 217.8Q103.8 217.4 103 217.4Q102.5 217.4 102.1 217.6Q101.6 217.9 101.3 218.3Q101.1 218.8 101.1 219.5V225ZM117.3 225.2Q116.1 225.2 115.2 224.6Q114.2 224.1 113.7 223.1Q113.2 222 113.2 220.7Q113.2 219.4 113.7 218.3Q114.2 217.3 115.1 216.7Q116 216.2 117.2 216.2Q117.9 216.2 118.6 216.4Q119.2 216.6 119.8 217.1Q120.3 217.6 120.7 218.5Q121 219.3 121 220.5V221.1H114.2V219.9H120.2L119.6 220.4Q119.6 219.5 119.3 218.8Q119 218.2 118.5 217.8Q118 217.4 117.2 217.4Q116.4 217.4 115.8 217.8Q115.3 218.2 115 218.8Q114.7 219.4 114.7 220.1V220.9Q114.7 221.9 115 222.6Q115.3 223.2 115.9 223.6Q116.6 223.9 117.4 223.9Q117.9 223.9 118.3 223.8Q118.7 223.6 119 223.3Q119.3 223 119.5 222.6L120.8 223Q120.6 223.6 120.2 224.1Q119.7 224.6 119 224.9Q118.2 225.2 117.3 225.2ZM127.5 225V216.3H128.9V225ZM128.2 214.8Q127.8 214.8 127.5 214.6Q127.2 214.3 127.2 213.9Q127.2 213.5 127.5 213.2Q127.8 213 128.2 213Q128.6 213 128.9 213.2Q129.2 213.5 129.2 213.9Q129.2 214.3 128.9 214.6Q128.6 214.8 128.2 214.8ZM134.3 225.2Q133.4 225.2 132.7 224.9Q132 224.7 131.6 224.1Q131.1 223.6 131 222.9L132.3 222.6Q132.5 223.3 133 223.6Q133.5 224 134.3 224Q135.2 224 135.8 223.6Q136.3 223.2 136.3 222.6Q136.3 222.2 136 221.9Q135.7 221.6 135 221.4L133.6 221.1Q132.4 220.8 131.8 220.2Q131.2 219.6 131.2 218.7Q131.2 218 131.7 217.4Q132.1 216.8 132.8 216.5Q133.6 216.2 134.5 216.2Q135.4 216.2 136 216.4Q136.6 216.7 137 217.2Q137.4 217.6 137.6 218.3L136.4 218.6Q136.2 218.1 135.8 217.7Q135.3 217.4 134.5 217.4Q133.7 217.4 133.2 217.7Q132.7 218.1 132.7 218.6Q132.7 219.1 133 219.4Q133.4 219.7 134.1 219.9L135.5 220.2Q136.6 220.5 137.2 221.1Q137.8 221.6 137.8 222.5Q137.8 223.3 137.4 223.9Q136.9 224.5 136.1 224.8Q135.4 225.2 134.3 225.2ZM143.4 225.2Q142.2 225.2 141.3 224.6Q140.4 224.1 139.9 223Q139.4 222 139.4 220.7Q139.4 219.3 139.9 218.3Q140.4 217.3 141.3 216.7Q142.2 216.2 143.4 216.2Q144.6 216.2 145.5 216.7Q146.4 217.3 146.9 218.3Q147.4 219.3 147.4 220.7Q147.4 222 146.9 223Q146.4 224.1 145.5 224.6Q144.6 225.2 143.4 225.2ZM143.4 223.9Q144.3 223.9 144.8 223.5Q145.4 223 145.7 222.3Q145.9 221.5 145.9 220.7Q145.9 219.8 145.7 219.1Q145.4 218.3 144.8 217.9Q144.3 217.4 143.4 217.4Q142.5 217.4 141.9 217.9Q141.4 218.3 141.1 219.1Q140.8 219.8 140.8 220.7Q140.8 221.5 141.1 222.3Q141.4 223 141.9 223.5Q142.5 223.9 143.4 223.9ZM150.8 213.4V225H149.4V213.4ZM155.7 225.2Q154.9 225.2 154.2 224.9Q153.6 224.6 153.2 224Q152.8 223.4 152.8 222.5Q152.8 221.8 153.1 221.3Q153.4 220.8 153.8 220.6Q154.3 220.3 154.9 220.2Q155.5 220 156.2 219.9Q156.9 219.8 157.4 219.8Q157.9 219.7 158.2 219.6Q158.4 219.5 158.4 219.1V219.1Q158.4 218.6 158.2 218.2Q158 217.8 157.6 217.6Q157.2 217.4 156.6 217.4Q155.9 217.4 155.5 217.6Q155.1 217.8 154.8 218.1Q154.5 218.4 154.4 218.7L153 218.2Q153.3 217.4 153.9 217Q154.5 216.5 155.2 216.3Q155.9 216.2 156.5 216.2Q157 216.2 157.5 216.3Q158.1 216.4 158.6 216.7Q159.1 217 159.5 217.6Q159.8 218.2 159.8 219.2V225H158.4V223.8H158.3Q158.2 224.1 157.9 224.4Q157.5 224.8 157 225Q156.5 225.2 155.7 225.2ZM156 224Q156.8 224 157.3 223.7Q157.8 223.4 158.1 222.9Q158.4 222.4 158.4 221.8V220.6Q158.3 220.7 158 220.8Q157.7 220.9 157.4 221Q157 221 156.6 221.1Q156.3 221.1 156.1 221.1Q155.6 221.2 155.1 221.3Q154.7 221.5 154.4 221.8Q154.2 222.1 154.2 222.6Q154.2 223 154.4 223.3Q154.6 223.6 155 223.8Q155.5 224 156 224ZM165.7 216.3V217.5H161.2V216.3ZM162.5 214.2H163.9V222.7Q163.9 223.3 164.2 223.6Q164.4 223.9 164.9 223.9Q165.1 223.9 165.3 223.8Q165.5 223.8 165.7 223.8L166 225Q165.7 225 165.5 225.1Q165.2 225.1 164.9 225.1Q163.8 225.1 163.1 224.5Q162.5 223.9 162.5 222.8ZM171.2 225.2Q169.9 225.2 169 224.6Q168.1 224.1 167.6 223.1Q167.1 222 167.1 220.7Q167.1 219.4 167.6 218.3Q168.1 217.3 168.9 216.7Q169.8 216.2 171 216.2Q171.7 216.2 172.4 216.4Q173.1 216.6 173.6 217.1Q174.2 217.6 174.5 218.5Q174.8 219.3 174.8 220.5V221.1H168V219.9H174.1L173.4 220.4Q173.4 219.5 173.1 218.8Q172.9 218.2 172.3 217.8Q171.8 217.4 171 217.4Q170.2 217.4 169.7 217.8Q169.1 218.2 168.8 218.8Q168.5 219.4 168.5 220.1V220.9Q168.5 221.9 168.8 222.6Q169.2 223.2 169.8 223.6Q170.4 223.9 171.2 223.9Q171.7 223.9 172.1 223.8Q172.5 223.6 172.9 223.3Q173.2 223 173.3 222.6L174.7 223Q174.5 223.6 174 224.1Q173.5 224.6 172.8 224.9Q172.1 225.2 171.2 225.2ZM179.8 225.2Q178.9 225.2 178.2 224.9Q177.5 224.7 177.1 224.1Q176.6 223.6 176.4 222.9L177.8 222.6Q178 223.3 178.5 223.6Q179 224 179.8 224Q180.7 224 181.2 223.6Q181.8 223.2 181.8 222.6Q181.8 222.2 181.5 221.9Q181.2 221.6 180.5 221.4L179.1 221.1Q177.9 220.8 177.3 220.2Q176.7 219.6 176.7 218.7Q176.7 218 177.1 217.4Q177.6 216.8 178.3 216.5Q179 216.2 179.9 216.2Q180.8 216.2 181.5 216.4Q182.1 216.7 182.5 217.2Q182.9 217.6 183.1 218.3L181.8 218.6Q181.6 218.1 181.2 217.7Q180.8 217.4 180 217.4Q179.2 217.4 178.7 217.7Q178.1 218.1 178.1 218.6Q178.1 219.1 178.5 219.4Q178.8 219.7 179.6 219.9L180.9 220.2Q182.1 220.5 182.7 221.1Q183.2 221.6 183.2 222.5Q183.2 223.3 182.8 223.9Q182.4 224.5 181.6 224.8Q180.8 225.2 179.8 225.2ZM193.2 216.3V217.5H188.7V216.3ZM190 214.2H191.4V222.7Q191.4 223.3 191.7 223.6Q191.9 223.9 192.5 223.9Q192.6 223.9 192.8 223.8Q193 223.8 193.2 223.8L193.5 225Q193.2 225 193 225.1Q192.7 225.1 192.4 225.1Q191.3 225.1 190.6 224.5Q190 223.9 190 222.8ZM196.4 219.8V225H195V213.4H196.4V218.4H196.2Q196.6 217.2 197.3 216.7Q198.1 216.2 199 216.2Q199.9 216.2 200.6 216.5Q201.3 216.9 201.6 217.6Q202 218.3 202 219.5V225H200.6V219.6Q200.6 218.6 200.1 218Q199.5 217.4 198.6 217.4Q198 217.4 197.5 217.7Q197 218 196.7 218.5Q196.4 219 196.4 219.8ZM208.1 225.2Q206.9 225.2 206 224.6Q205 224.1 204.6 223.1Q204.1 222 204.1 220.7Q204.1 219.4 204.5 218.3Q205 217.3 205.9 216.7Q206.8 216.2 208 216.2Q208.7 216.2 209.4 216.4Q210 216.6 210.6 217.1Q211.1 217.6 211.5 218.5Q211.8 219.3 211.8 220.5V221.1H205V219.9H211L210.4 220.4Q210.4 219.5 210.1 218.8Q209.8 218.2 209.3 217.8Q208.8 217.4 208 217.4Q207.2 217.4 206.6 217.8Q206.1 218.2 205.8 218.8Q205.5 219.4 205.5 220.1V220.9Q205.5 221.9 205.8 222.6Q206.1 223.2 206.8 223.6Q207.4 223.9 208.2 223.9Q208.7 223.9 209.1 223.8Q209.5 223.6 209.8 223.3Q210.1 223 210.3 222.6L211.6 223Q211.4 223.6 211 224.1Q210.5 224.6 209.8 224.9Q209 225.2 208.1 225.2ZM220.3 225 217.6 216.3H219.1L220.2 220.1Q220.4 220.9 220.6 221.8Q220.9 222.8 221.1 224.1H220.9Q221.1 222.9 221.4 221.9Q221.6 220.9 221.8 220.1L222.9 216.3H224.4L225.4 220.1Q225.6 220.9 225.9 221.9Q226.1 222.9 226.3 224.1H226.1Q226.3 222.9 226.6 221.9Q226.8 220.9 227.1 220.1L228.1 216.3H229.6L227 225H225.6L224.4 221Q224.3 220.4 224.1 219.8Q223.9 219.2 223.8 218.5Q223.6 217.9 223.5 217.2H223.8Q223.6 217.9 223.5 218.5Q223.3 219.2 223.1 219.8Q223 220.5 222.8 221L221.7 225ZM231.4 225V216.3H232.8V225ZM232.1 214.8Q231.7 214.8 231.4 214.6Q231.1 214.3 231.1 213.9Q231.1 213.5 231.4 213.2Q231.7 213 232.1 213Q232.5 213 232.8 213.2Q233.1 213.5 233.1 213.9Q233.1 214.3 232.8 214.6Q232.5 214.8 232.1 214.8ZM238.5 225.2Q237.5 225.2 236.6 224.6Q235.8 224.1 235.3 223.1Q234.9 222 234.9 220.7Q234.9 219.3 235.3 218.3Q235.8 217.2 236.6 216.7Q237.5 216.2 238.6 216.2Q239.4 216.2 239.9 216.4Q240.4 216.7 240.7 217.1Q240.9 217.4 241.1 217.7H241.2V213.4H242.6V225H241.2V223.6H241.1Q240.9 223.9 240.7 224.3Q240.4 224.6 239.9 224.9Q239.4 225.2 238.5 225.2ZM238.8 223.9Q239.6 223.9 240.1 223.5Q240.6 223.1 240.9 222.4Q241.2 221.6 241.2 220.6Q241.2 219.7 240.9 218.9Q240.7 218.2 240.1 217.8Q239.6 217.4 238.8 217.4Q237.9 217.4 237.4 217.8Q236.8 218.3 236.6 219Q236.3 219.7 236.3 220.6Q236.3 221.6 236.6 222.3Q236.8 223 237.4 223.5Q237.9 223.9 238.8 223.9ZM248.6 228.5Q247.6 228.5 246.9 228.2Q246.2 228 245.8 227.6Q245.3 227.1 245 226.7L246.2 225.9Q246.3 226.2 246.6 226.5Q246.9 226.8 247.4 227Q247.8 227.2 248.6 227.2Q249.7 227.2 250.3 226.7Q251 226.2 251 225.1V223.4H250.9Q250.7 223.6 250.5 224Q250.2 224.3 249.7 224.6Q249.2 224.9 248.3 224.9Q247.3 224.9 246.5 224.4Q245.6 223.9 245.1 222.9Q244.6 222 244.6 220.6Q244.6 219.2 245.1 218.2Q245.6 217.2 246.4 216.7Q247.3 216.2 248.4 216.2Q249.2 216.2 249.7 216.4Q250.2 216.7 250.5 217.1Q250.8 217.4 250.9 217.7H251V216.3H252.4V225.2Q252.4 226.4 251.9 227.1Q251.4 227.8 250.5 228.1Q249.7 228.5 248.6 228.5ZM248.6 223.6Q249.4 223.6 249.9 223.2Q250.5 222.9 250.7 222.2Q251 221.5 251 220.6Q251 219.6 250.7 218.9Q250.5 218.2 249.9 217.8Q249.4 217.4 248.6 217.4Q247.7 217.4 247.2 217.8Q246.6 218.3 246.4 219Q246.1 219.7 246.1 220.6Q246.1 221.5 246.4 222.1Q246.6 222.8 247.2 223.2Q247.8 223.6 248.6 223.6ZM258.6 225.2Q257.3 225.2 256.4 224.6Q255.5 224.1 255 223.1Q254.5 222 254.5 220.7Q254.5 219.4 254.9 218.3Q255.4 217.3 256.3 216.7Q257.2 216.2 258.4 216.2Q259.1 216.2 259.8 216.4Q260.4 216.6 261 217.1Q261.5 217.6 261.9 218.5Q262.2 219.3 262.2 220.5V221.1H255.4V219.9H261.4L260.8 220.4Q260.8 219.5 260.5 218.8Q260.2 218.2 259.7 217.8Q259.2 217.4 258.4 217.4Q257.6 217.4 257 217.8Q256.5 218.2 256.2 218.8Q255.9 219.4 255.9 220.1V220.9Q255.9 221.9 256.2 222.6Q256.6 223.2 257.2 223.6Q257.8 223.9 258.6 223.9Q259.1 223.9 259.5 223.8Q259.9 223.6 260.2 223.3Q260.5 223 260.7 222.6L262.1 223Q261.9 223.6 261.4 224.1Q260.9 224.6 260.2 224.9Q259.5 225.2 258.6 225.2ZM267.6 216.3V217.5H263.1V216.3ZM264.4 214.2H265.9V222.7Q265.9 223.3 266.1 223.6Q266.3 223.9 266.9 223.9Q267 223.9 267.2 223.8Q267.4 223.8 267.6 223.8L267.9 225Q267.7 225 267.4 225.1Q267.1 225.1 266.8 225.1Q265.7 225.1 265.1 224.5Q264.4 223.9 264.4 222.8ZM278 216.3V217.5H272.9V216.3ZM274.6 225V215.1Q274.6 214.3 274.9 213.8Q275.3 213.3 275.9 213.1Q276.4 212.8 277.1 212.8Q277.6 212.8 277.9 212.9Q278.2 213 278.4 213L278 214.2Q277.9 214.2 277.7 214.2Q277.5 214.1 277.2 214.1Q276.6 214.1 276.3 214.4Q276 214.8 276 215.4V225ZM279.9 225V216.3H281.2V217.6H281.3Q281.6 216.9 282.2 216.5Q282.8 216.1 283.6 216.1Q283.7 216.1 284 216.1Q284.2 216.2 284.3 216.2V217.6Q284.2 217.6 284 217.5Q283.7 217.5 283.5 217.5Q282.8 217.5 282.3 217.8Q281.8 218 281.6 218.5Q281.3 218.9 281.3 219.5V225ZM289.4 225.2Q288.3 225.2 287.4 224.6Q286.5 224.1 286 223Q285.5 222 285.5 220.7Q285.5 219.3 286 218.3Q286.5 217.3 287.4 216.7Q288.3 216.2 289.4 216.2Q290.6 216.2 291.5 216.7Q292.4 217.3 292.9 218.3Q293.4 219.3 293.4 220.7Q293.4 222 292.9 223Q292.4 224.1 291.5 224.6Q290.6 225.2 289.4 225.2ZM289.4 223.9Q290.3 223.9 290.9 223.5Q291.5 223 291.7 222.3Q292 221.5 292 220.7Q292 219.8 291.7 219.1Q291.5 218.3 290.9 217.9Q290.3 217.4 289.4 217.4Q288.6 217.4 288 217.9Q287.4 218.3 287.2 219.1Q286.9 219.8 286.9 220.7Q286.9 221.5 287.2 222.3Q287.4 223 288 223.5Q288.6 223.9 289.4 223.9ZM295.5 225V216.3H296.9L296.9 218.2H296.8Q296.9 217.5 297.3 217Q297.7 216.6 298.2 216.3Q298.7 216.1 299.3 216.1Q300.3 216.1 300.8 216.7Q301.4 217.3 301.6 218.2H301.4Q301.6 217.6 302 217.1Q302.4 216.6 303 216.4Q303.6 216.1 304.3 216.1Q305 216.1 305.7 216.4Q306.3 216.8 306.7 217.4Q307 218.1 307 219.1V225H305.6V219.1Q305.6 218.2 305.1 217.8Q304.6 217.4 303.9 217.4Q303.3 217.4 302.8 217.6Q302.4 217.9 302.2 218.3Q302 218.7 302 219.3V225H300.6V219Q300.6 218.3 300.1 217.8Q299.6 217.4 298.8 217.4Q298.3 217.4 297.9 217.6Q297.4 217.9 297.2 218.3Q296.9 218.8 296.9 219.5V225ZM317.4 216.3V217.5H312.9V216.3ZM314.2 214.2H315.6V222.7Q315.6 223.3 315.9 223.6Q316.1 223.9 316.7 223.9Q316.8 223.9 317 223.8Q317.2 223.8 317.4 223.8L317.7 225Q317.5 225 317.2 225.1Q316.9 225.1 316.6 225.1Q315.5 225.1 314.9 224.5Q314.2 223.9 314.2 222.8ZM320.6 219.8V225H319.2V213.4H320.6V218.4H320.4Q320.8 217.2 321.5 216.7Q322.3 216.2 323.3 216.2Q324.1 216.2 324.8 216.5Q325.5 216.9 325.9 217.6Q326.2 218.3 326.2 219.5V225H324.8V219.6Q324.8 218.6 324.3 218Q323.8 217.4 322.8 217.4Q322.2 217.4 321.7 217.7Q321.2 218 320.9 218.5Q320.6 219 320.6 219.8ZM332.4 225.2Q331.1 225.2 330.2 224.6Q329.3 224.1 328.8 223.1Q328.3 222 328.3 220.7Q328.3 219.4 328.8 218.3Q329.2 217.3 330.1 216.7Q331 216.2 332.2 216.2Q332.9 216.2 333.6 216.4Q334.2 216.6 334.8 217.1Q335.4 217.6 335.7 218.5Q336 219.3 336 220.5V221.1H329.2V219.9H335.2L334.6 220.4Q334.6 219.5 334.3 218.8Q334.1 218.2 333.5 217.8Q333 217.4 332.2 217.4Q331.4 217.4 330.9 217.8Q330.3 218.2 330 218.8Q329.7 219.4 329.7 220.1V220.9Q329.7 221.9 330 222.6Q330.4 223.2 331 223.6Q331.6 223.9 332.4 223.9Q332.9 223.9 333.3 223.8Q333.7 223.6 334 223.3Q334.3 223 334.5 222.6L335.9 223Q335.7 223.6 335.2 224.1Q334.7 224.6 334 224.9Q333.3 225.2 332.4 225.2ZM343.9 219.8V225H342.5V213.4H343.9V218.4H343.7Q344.1 217.2 344.8 216.7Q345.6 216.2 346.6 216.2Q347.4 216.2 348.1 216.5Q348.8 216.9 349.1 217.6Q349.5 218.3 349.5 219.5V225H348.1V219.6Q348.1 218.6 347.6 218Q347 217.4 346.1 217.4Q345.5 217.4 345 217.7Q344.5 218 344.2 218.5Q343.9 219 343.9 219.8ZM355.5 225.2Q354.4 225.2 353.5 224.6Q352.6 224.1 352.1 223Q351.6 222 351.6 220.7Q351.6 219.3 352.1 218.3Q352.6 217.3 353.5 216.7Q354.4 216.2 355.5 216.2Q356.7 216.2 357.6 216.7Q358.5 217.3 359 218.3Q359.5 219.3 359.5 220.7Q359.5 222 359 223Q358.5 224.1 357.6 224.6Q356.7 225.2 355.5 225.2ZM355.5 223.9Q356.4 223.9 357 223.5Q357.6 223 357.8 222.3Q358.1 221.5 358.1 220.7Q358.1 219.8 357.8 219.1Q357.6 218.3 357 217.9Q356.4 217.4 355.5 217.4Q354.7 217.4 354.1 217.9Q353.5 218.3 353.3 219.1Q353 219.8 353 220.7Q353 221.5 353.3 222.3Q353.5 223 354.1 223.5Q354.7 223.9 355.5 223.9ZM364.5 225.2Q363.6 225.2 362.9 224.9Q362.2 224.7 361.8 224.1Q361.3 223.6 361.2 222.9L362.5 222.6Q362.7 223.3 363.2 223.6Q363.8 224 364.5 224Q365.4 224 366 223.6Q366.5 223.2 366.5 222.6Q366.5 222.2 366.2 221.9Q365.9 221.6 365.2 221.4L363.8 221.1Q362.6 220.8 362 220.2Q361.5 219.6 361.5 218.7Q361.5 218 361.9 217.4Q362.3 216.8 363 216.5Q363.8 216.2 364.7 216.2Q365.6 216.2 366.2 216.4Q366.8 216.7 367.2 217.2Q367.6 217.6 367.8 218.3L366.6 218.6Q366.4 218.1 366 217.7Q365.5 217.4 364.7 217.4Q363.9 217.4 363.4 217.7Q362.9 218.1 362.9 218.6Q362.9 219.1 363.2 219.4Q363.6 219.7 364.3 219.9L365.7 220.2Q366.9 220.5 367.4 221.1Q368 221.6 368 222.5Q368 223.3 367.6 223.9Q367.1 224.5 366.3 224.8Q365.6 225.2 364.5 225.2ZM373.5 216.3V217.5H368.9V216.3ZM370.3 214.2H371.7V222.7Q371.7 223.3 371.9 223.6Q372.1 223.9 372.7 223.9Q372.8 223.9 373 223.8Q373.2 223.8 373.4 223.8L373.7 225Q373.5 225 373.2 225.1Q372.9 225.1 372.7 225.1Q371.5 225.1 370.9 224.5Q370.3 223.9 370.3 222.8ZM379.8 228.3V216.3H381.1V217.7H381.3Q381.4 217.4 381.7 217.1Q382 216.7 382.5 216.4Q383 216.2 383.8 216.2Q384.9 216.2 385.7 216.7Q386.6 217.2 387 218.3Q387.5 219.3 387.5 220.7Q387.5 222 387 223.1Q386.6 224.1 385.7 224.6Q384.9 225.2 383.8 225.2Q383 225.2 382.5 224.9Q382 224.6 381.7 224.3Q381.4 223.9 381.3 223.6H381.2V228.3ZM383.6 223.9Q384.4 223.9 385 223.5Q385.5 223 385.8 222.3Q386.1 221.6 386.1 220.6Q386.1 219.7 385.8 219Q385.5 218.3 385 217.8Q384.4 217.4 383.6 217.4Q382.8 217.4 382.2 217.8Q381.7 218.2 381.4 218.9Q381.1 219.7 381.1 220.6Q381.1 221.6 381.4 222.4Q381.7 223.1 382.3 223.5Q382.8 223.9 383.6 223.9ZM392 225.2Q391.2 225.2 390.5 224.9Q389.8 224.6 389.4 224Q389 223.4 389 222.5Q389 221.8 389.3 221.3Q389.6 220.8 390.1 220.6Q390.6 220.3 391.2 220.2Q391.8 220 392.4 219.9Q393.2 219.8 393.7 219.8Q394.2 219.7 394.4 219.6Q394.7 219.5 394.7 219.1V219.1Q394.7 218.6 394.5 218.2Q394.3 217.8 393.9 217.6Q393.4 217.4 392.8 217.4Q392.2 217.4 391.8 217.6Q391.3 217.8 391 218.1Q390.8 218.4 390.6 218.7L389.3 218.2Q389.6 217.4 390.2 217Q390.8 216.5 391.4 216.3Q392.1 216.2 392.8 216.2Q393.2 216.2 393.8 216.3Q394.4 216.4 394.9 216.7Q395.4 217 395.7 217.6Q396.1 218.2 396.1 219.2V225H394.7V223.8H394.6Q394.4 224.1 394.1 224.4Q393.8 224.8 393.3 225Q392.7 225.2 392 225.2ZM392.2 224Q393 224 393.6 223.7Q394.1 223.4 394.4 222.9Q394.7 222.4 394.7 221.8V220.6Q394.6 220.7 394.3 220.8Q394 220.9 393.6 221Q393.3 221 392.9 221.1Q392.6 221.1 392.4 221.1Q391.9 221.2 391.4 221.3Q391 221.5 390.7 221.8Q390.4 222.1 390.4 222.6Q390.4 223 390.7 223.3Q390.9 223.6 391.3 223.8Q391.7 224 392.2 224ZM402.1 228.5Q401.1 228.5 400.4 228.2Q399.7 228 399.2 227.6Q398.8 227.1 398.5 226.7L399.6 225.9Q399.8 226.2 400.1 226.5Q400.4 226.8 400.8 227Q401.3 227.2 402.1 227.2Q403.1 227.2 403.8 226.7Q404.5 226.2 404.5 225.1V223.4H404.3Q404.2 223.6 403.9 224Q403.7 224.3 403.2 224.6Q402.6 224.9 401.8 224.9Q400.8 224.9 399.9 224.4Q399.1 223.9 398.6 222.9Q398.1 222 398.1 220.6Q398.1 219.2 398.6 218.2Q399.1 217.2 399.9 216.7Q400.8 216.2 401.8 216.2Q402.7 216.2 403.2 216.4Q403.7 216.7 404 217.1Q404.2 217.4 404.4 217.7H404.5V216.3H405.9V225.2Q405.9 226.4 405.4 227.1Q404.9 227.8 404 228.1Q403.1 228.5 402.1 228.5ZM402 223.6Q402.8 223.6 403.4 223.2Q403.9 222.9 404.2 222.2Q404.5 221.5 404.5 220.6Q404.5 219.6 404.2 218.9Q403.9 218.2 403.4 217.8Q402.8 217.4 402 217.4Q401.2 217.4 400.7 217.8Q400.1 218.3 399.8 219Q399.5 219.7 399.5 220.6Q399.5 221.5 399.8 222.1Q400.1 222.8 400.7 223.2Q401.2 223.6 402 223.6ZM412 225.2Q410.8 225.2 409.8 224.6Q408.9 224.1 408.4 223.1Q407.9 222 407.9 220.7Q407.9 219.4 408.4 218.3Q408.9 217.3 409.8 216.7Q410.7 216.2 411.9 216.2Q412.6 216.2 413.2 216.4Q413.9 216.6 414.5 217.1Q415 217.6 415.3 218.5Q415.7 219.3 415.7 220.5V221.1H408.9V219.9H414.9L414.2 220.4Q414.2 219.5 414 218.8Q413.7 218.2 413.2 217.8Q412.6 217.4 411.9 217.4Q411.1 217.4 410.5 217.8Q409.9 218.2 409.6 218.8Q409.4 219.4 409.4 220.1V220.9Q409.4 221.9 409.7 222.6Q410 223.2 410.6 223.6Q411.2 223.9 412 223.9Q412.5 223.9 413 223.8Q413.4 223.6 413.7 223.3Q414 223 414.2 222.6L415.5 223Q415.3 223.6 414.8 224.1Q414.4 224.6 413.6 224.9Q412.9 225.2 412 225.2ZM418.8 225.1Q418.3 225.1 418 224.8Q417.7 224.5 417.7 224Q417.7 223.6 418 223.3Q418.3 223 418.8 223Q419.2 223 419.5 223.3Q419.8 223.6 419.8 224Q419.8 224.5 419.5 224.8Q419.2 225.1 418.8 225.1ZM431.7 225.2Q430.2 225.2 429 224.4Q427.9 223.7 427.2 222.4Q426.5 221 426.5 219.2Q426.5 217.3 427.2 216Q427.9 214.7 429 213.9Q430.2 213.2 431.7 213.2Q433.2 213.2 434.3 213.9Q435.5 214.7 436.2 216Q436.8 217.3 436.8 219.2Q436.8 221 436.2 222.4Q435.5 223.7 434.3 224.4Q433.2 225.2 431.7 225.2ZM431.7 223.8Q432.7 223.8 433.6 223.3Q434.4 222.7 434.9 221.7Q435.4 220.7 435.4 219.2Q435.4 217.7 434.9 216.7Q434.4 215.6 433.6 215.1Q432.7 214.6 431.7 214.6Q430.6 214.6 429.8 215.1Q428.9 215.6 428.4 216.7Q428 217.7 428 219.2Q428 220.7 428.4 221.7Q428.9 222.7 429.8 223.2Q430.6 223.8 431.7 223.8ZM440.4 219.8V225H439V216.3H440.4L440.4 218.4H440.2Q440.6 217.2 441.3 216.7Q442.1 216.2 443.1 216.2Q443.9 216.2 444.6 216.5Q445.3 216.9 445.6 217.6Q446 218.3 446 219.5V225H444.6V219.6Q444.6 218.6 444.1 218Q443.5 217.4 442.6 217.4Q442 217.4 441.5 217.7Q441 218 440.7 218.5Q440.4 219 440.4 219.8ZM453 228.3V216.3H454.3V217.7H454.5Q454.6 217.4 454.9 217.1Q455.2 216.7 455.7 216.4Q456.2 216.2 457 216.2Q458.1 216.2 458.9 216.7Q459.8 217.2 460.3 218.3Q460.7 219.3 460.7 220.7Q460.7 222 460.3 223.1Q459.8 224.1 459 224.6Q458.1 225.2 457 225.2Q456.2 225.2 455.7 224.9Q455.2 224.6 454.9 224.3Q454.6 223.9 454.5 223.6H454.4V228.3ZM456.8 223.9Q457.6 223.9 458.2 223.5Q458.7 223 459 222.3Q459.3 221.6 459.3 220.6Q459.3 219.7 459 219Q458.8 218.3 458.2 217.8Q457.6 217.4 456.8 217.4Q456 217.4 455.5 217.8Q454.9 218.2 454.6 218.9Q454.4 219.7 454.4 220.6Q454.4 221.6 454.6 222.4Q454.9 223.1 455.5 223.5Q456 223.9 456.8 223.9ZM465.7 225.1Q464.9 225.1 464.2 224.7Q463.5 224.4 463.1 223.6Q462.8 222.9 462.8 221.8V216.3H464.2V221.7Q464.2 222.7 464.7 223.3Q465.2 223.8 466.2 223.8Q466.8 223.8 467.3 223.6Q467.8 223.3 468.1 222.8Q468.4 222.2 468.4 221.5V216.3H469.8V225H468.4V222.9H468.6Q468.2 224.1 467.4 224.6Q466.7 225.1 465.7 225.1ZM472.2 225V216.3H473.6V217.6H473.7Q473.9 216.9 474.6 216.5Q475.2 216.1 476 216.1Q476.1 216.1 476.3 216.1Q476.5 216.2 476.7 216.2V217.6Q476.6 217.6 476.4 217.5Q476.1 217.5 475.8 217.5Q475.2 217.5 474.7 217.8Q474.2 218 473.9 218.5Q473.6 218.9 473.6 219.5V225ZM478.3 228.3V216.3H479.6V217.7H479.8Q479.9 217.4 480.2 217.1Q480.5 216.7 481 216.4Q481.5 216.2 482.3 216.2Q483.4 216.2 484.2 216.7Q485.1 217.2 485.5 218.3Q486 219.3 486 220.7Q486 222 485.5 223.1Q485.1 224.1 484.2 224.6Q483.4 225.2 482.3 225.2Q481.5 225.2 481 224.9Q480.5 224.6 480.2 224.3Q479.9 223.9 479.8 223.6H479.7V228.3ZM482.1 223.9Q482.9 223.9 483.5 223.5Q484 223 484.3 222.3Q484.6 221.6 484.6 220.6Q484.6 219.7 484.3 219Q484 218.3 483.5 217.8Q482.9 217.4 482.1 217.4Q481.3 217.4 480.8 217.8Q480.2 218.2 479.9 218.9Q479.6 219.7 479.6 220.6Q479.6 221.6 479.9 222.4Q480.2 223.1 480.8 223.5Q481.3 223.9 482.1 223.9ZM491.6 225.2Q490.4 225.2 489.5 224.6Q488.6 224.1 488.1 223Q487.6 222 487.6 220.7Q487.6 219.3 488.1 218.3Q488.6 217.3 489.5 216.7Q490.4 216.2 491.6 216.2Q492.8 216.2 493.7 216.7Q494.6 217.3 495.1 218.3Q495.6 219.3 495.6 220.7Q495.6 222 495.1 223Q494.6 224.1 493.7 224.6Q492.8 225.2 491.6 225.2ZM491.6 223.9Q492.5 223.9 493.1 223.5Q493.6 223 493.9 222.3Q494.2 221.5 494.2 220.7Q494.2 219.8 493.9 219.1Q493.6 218.3 493.1 217.9Q492.5 217.4 491.6 217.4Q490.7 217.4 490.2 217.9Q489.6 218.3 489.3 219.1Q489.1 219.8 489.1 220.7Q489.1 221.5 489.3 222.3Q489.6 223 490.2 223.5Q490.7 223.9 491.6 223.9ZM500.6 225.2Q499.7 225.2 499 224.9Q498.3 224.7 497.9 224.1Q497.4 223.6 497.3 222.9L498.6 222.6Q498.8 223.3 499.3 223.6Q499.8 224 500.6 224Q501.5 224 502.1 223.6Q502.6 223.2 502.6 222.6Q502.6 222.2 502.3 221.9Q502 221.6 501.3 221.4L499.9 221.1Q498.7 220.8 498.1 220.2Q497.5 219.6 497.5 218.7Q497.5 218 497.9 217.4Q498.4 216.8 499.1 216.5Q499.8 216.2 500.8 216.2Q501.7 216.2 502.3 216.4Q502.9 216.7 503.3 217.2Q503.7 217.6 503.9 218.3L502.6 218.6Q502.4 218.1 502 217.7Q501.6 217.4 500.8 217.4Q500 217.4 499.5 217.7Q498.9 218.1 498.9 218.6Q498.9 219.1 499.3 219.4Q499.6 219.7 500.4 219.9L501.7 220.2Q502.9 220.5 503.5 221.1Q504.1 221.6 504.1 222.5Q504.1 223.3 503.6 223.9Q503.2 224.5 502.4 224.8Q501.6 225.2 500.6 225.2ZM509.8 225.2Q508.5 225.2 507.6 224.6Q506.7 224.1 506.2 223.1Q505.7 222 505.7 220.7Q505.7 219.4 506.2 218.3Q506.6 217.3 507.5 216.7Q508.4 216.2 509.6 216.2Q510.3 216.2 511 216.4Q511.6 216.6 512.2 217.1Q512.8 217.6 513.1 218.5Q513.4 219.3 513.4 220.5V221.1H506.6V219.9H512.6L512 220.4Q512 219.5 511.7 218.8Q511.5 218.2 510.9 217.8Q510.4 217.4 509.6 217.4Q508.8 217.4 508.2 217.8Q507.7 218.2 507.4 218.8Q507.1 219.4 507.1 220.1V220.9Q507.1 221.9 507.4 222.6Q507.8 223.2 508.4 223.6Q509 223.9 509.8 223.9Q510.3 223.9 510.7 223.8Q511.1 223.6 511.4 223.3Q511.7 223 511.9 222.6L513.3 223Q513.1 223.6 512.6 224.1Q512.1 224.6 511.4 224.9Q510.7 225.2 509.8 225.2ZM516.5 225.1Q516.1 225.1 515.7 224.8Q515.4 224.5 515.4 224Q515.4 223.6 515.7 223.3Q516.1 223 516.5 223Q516.9 223 517.2 223.3Q517.5 223.6 517.5 224Q517.5 224.5 517.2 224.8Q516.9 225.1 516.5 225.1Z"/>
</svg>
